<?xml version="1.0" encoding="UTF-8" standalone="no"?>
<svg
   version="1.1"
   id="Layer_1"
   width="100%"
   viewBox="28 32 1492 1472"
   xml:space="preserve"
   xmlns="http://www.w3.org/2000/svg"><defs id="defs129">
  <clipPath id="circleClip">
    <circle cx="772" cy="768" r="738"/>
  </clipPath>
</defs>
<g clip-path="url(#circleClip)">
<path
   fill="#15385D"
   opacity="1.000000"
   stroke="none"
   d=" M395.152771,140.126404   C423.272949,123.173157 452.381287,108.990288 482.194214,96.199631   C512.480652,83.205818 543.618958,72.664139 575.372864,63.921337   C608.289795,54.858311 641.698914,48.281269 675.578369,43.975140   C712.834473,39.239834 750.226135,37.410030 787.752075,38.049076   C840.015869,38.939106 891.659241,44.791210 942.629883,56.702785   C1006.271729,71.575546 1066.987061,94.114304 1124.552734,125.038223   C1182.799927,156.328186 1235.960571,194.707321 1283.965210,240.200684   C1360.002563,312.260193 1417.564941,396.984192 1457.755737,493.628662   C1479.227661,545.261230 1493.920776,598.816467 1502.706665,653.974243   C1511.488281,709.105469 1514.490356,764.545105 1510.079712,820.289429   C1504.034668,896.688538 1487.984741,970.822388 1458.916504,1041.854492   C1429.120361,1114.665405 1388.651489,1181.132080 1337.653809,1241.042114   C1272.488892,1317.594971 1194.718506,1378.052734 1104.756226,1423.034302   C1052.875000,1448.975220 998.715271,1468.261719 942.296448,1481.352417   C874.568481,1497.067383 805.848633,1503.259766 736.513367,1499.588257   C617.078491,1493.264038 504.904968,1461.238525 401.116852,1401.214478   C333.107819,1361.882812 272.909515,1312.894409 220.551880,1254.284424   C165.743042,1192.930298 122.013443,1124.534302 90.209572,1048.641479   C70.628258,1001.915161 56.328037,953.577332 46.949505,903.747803   C37.488571,853.480530 33.497612,802.795349 34.365124,751.713074   C35.019611,713.174683 39.532547,675.004028 46.429153,637.109924   C57.497429,576.294067 75.846779,517.770142 102.216400,461.834747   C124.556458,414.446838 151.250870,369.683319 183.338074,328.182434   C225.125870,274.135010 272.867798,226.026031 327.692719,185.270813   C349.285126,169.219666 372.399078,155.215302 395.152771,140.126404  M1281.153442,1204.659668   C1288.341797,1196.138550 1295.770630,1187.807129 1302.674072,1179.061157   C1324.478149,1151.437134 1343.817017,1122.164185 1361.210205,1091.556641   C1384.920166,1049.833252 1403.803345,1006.030090 1417.567993,960.121277   C1436.528564,896.882751 1446.175659,832.193787 1445.619141,766.087463   C1445.390503,738.917908 1443.655518,711.882507 1440.174805,684.887756   C1433.888184,636.130920 1422.438965,588.677856 1405.531128,542.591736   C1384.649536,485.674225 1356.327148,432.625488 1320.767456,383.487915   C1276.233154,321.948700 1223.104858,269.096863 1160.685669,225.717468   C1093.679077,179.150024 1020.657959,145.692429 941.539429,125.592407   C895.217407,113.824326 848.184265,106.874580 800.431519,105.183807   C762.920715,103.855667 725.499207,105.242462 688.217041,110.012268   C657.960571,113.883209 628.011841,119.322815 598.528564,127.106377   C542.534424,141.888794 489.491272,163.936172 439.085266,192.422989   C391.734131,219.183334 348.272797,251.163483 308.834747,288.639526   C252.541946,342.131775 206.325165,403.104309 171.453064,472.599365   C150.403839,514.547485 133.289062,557.996155 121.698280,603.489929   C110.909920,645.834351 103.688103,688.765137 101.659851,732.527344   C99.680397,775.236938 100.522835,817.821228 106.451889,860.186829   C112.957275,906.670593 124.935219,951.822266 140.888443,995.930237   C163.040802,1057.177734 194.195999,1113.587524 233.545517,1165.364014   C290.617920,1240.460815 359.911560,1301.795776 442.377808,1347.900269   C507.907806,1384.536255 577.735657,1409.173218 651.664795,1422.276123   C690.616333,1429.179565 729.878479,1433.334351 769.390076,1433.563721   C813.603516,1433.820435 857.592529,1429.698730 901.078552,1421.640991   C940.928772,1414.256958 979.721863,1402.698975 1017.564758,1388.286255   C1072.306763,1367.437622 1123.177734,1339.255859 1170.730103,1305.085693   C1211.203125,1276.002441 1247.623047,1242.441040 1281.153442,1204.659668  z"
   id="path27"
   style="fill-rule:evenodd" />
<path
   fill="#F57413"
   opacity="1.000000"
   stroke="none"
   d=" M1280.909424,1204.916016   C1247.623047,1242.441040 1211.203125,1276.002441 1170.730103,1305.085693   C1123.177734,1339.255859 1072.306763,1367.437622 1017.564758,1388.286255   C979.721863,1402.698975 940.928772,1414.256958 901.078552,1421.640991   C857.592529,1429.698730 813.603516,1433.820435 769.390076,1433.563721   C729.878479,1433.334351 690.616333,1429.179565 651.664795,1422.276123   C577.735657,1409.173218 507.907806,1384.536255 442.377808,1347.900269   C359.911560,1301.795776 290.617920,1240.460815 233.545517,1165.364014   C194.195999,1113.587524 163.040802,1057.177734 140.888443,995.930237   C124.935219,951.822266 112.957275,906.670593 106.451889,860.186829   C100.522835,817.821228 99.680397,775.236938 101.659851,732.527344   C103.688103,688.765137 110.909920,645.834351 121.698280,603.489929   C133.289062,557.996155 150.403839,514.547485 171.453064,472.599365   C206.325165,403.104309 252.541946,342.131775 308.834747,288.639526   C348.272797,251.163483 391.734131,219.183334 439.085266,192.422989   C489.491272,163.936172 542.534424,141.888794 598.528564,127.106377   C628.011841,119.322815 657.960571,113.883209 688.217041,110.012268   C725.499207,105.242462 762.920715,103.855667 800.431519,105.183807   C848.184265,106.874580 895.217407,113.824326 941.539429,125.592407   C1020.657959,145.692429 1093.679077,179.150024 1160.685669,225.717468   C1223.104858,269.096863 1276.233154,321.948700 1320.767456,383.487915   C1356.327148,432.625488 1384.649536,485.674225 1405.531128,542.591736   C1422.438965,588.677856 1433.888184,636.130920 1440.174805,684.887756   C1443.655518,711.882507 1445.390503,738.917908 1445.619141,766.087463   C1446.175659,832.193787 1436.528564,896.882751 1417.567993,960.121277   C1403.803345,1006.030090 1384.920166,1049.833252 1361.210205,1091.556641   C1343.817017,1122.164185 1324.478149,1151.437134 1302.674072,1179.061157   C1295.770630,1187.807129 1288.341797,1196.138550 1280.909424,1204.916016  M1123.501831,1254.095459   C1123.196411,1254.258423 1123.007080,1254.509033 1122.923218,1254.921387   C1122.923218,1254.921387 1122.853149,1254.895020 1122.140625,1254.900757   C1120.988892,1256.126587 1119.837158,1257.352417 1118.609741,1258.723389   C1118.609741,1258.723389 1118.446533,1258.713135 1117.763794,1258.414062   C1117.004272,1258.675293 1116.115112,1258.764160 1115.504272,1259.223145   C1103.031860,1268.596680 1090.564087,1277.977051 1078.177612,1287.463135   C1076.566406,1288.697021 1075.405273,1290.518311 1074.009644,1292.006104   C1074.009644,1292.006104 1074.070312,1292.033569 1073.576294,1292.140625   C1073.355347,1292.388794 1073.134277,1292.636963 1072.706909,1293.106323   C1072.706909,1293.106323 1072.405029,1293.129150 1071.815918,1293.224487   C1071.549316,1293.504150 1071.282715,1293.783813 1071.004517,1294.004395   C1071.004517,1294.004395 1071.054443,1294.038086 1070.322876,1293.996582   C1068.570557,1295.367554 1066.818115,1296.738647 1065.012695,1298.031494   C1065.012695,1298.031494 1065.095337,1298.077148 1064.385742,1298.030640   C1063.612549,1298.724121 1062.839233,1299.417603 1062.015137,1300.031372   C1062.015137,1300.031372 1062.096802,1300.078979 1061.391602,1300.019653   C1060.604492,1300.702148 1059.817383,1301.384644 1059.003174,1302.007812   C1059.003174,1302.007812 1059.060425,1302.039062 1058.305176,1301.987061   C1051.479370,1305.673096 1044.560059,1309.200195 1037.875122,1313.125977   C1035.313965,1314.629883 1033.287842,1317.044678 1030.999634,1319.000000   C1030.999634,1319.000000 1031.041748,1319.022583 1030.306519,1318.951782   C1028.883179,1319.989746 1027.459961,1321.027832 1026.002808,1322.005005   C1026.002808,1322.005005 1026.058472,1322.046753 1025.308105,1321.970825   C1020.173950,1324.888428 1015.039795,1327.805908 1009.905640,1330.723511   C1011.021484,1331.817627 1011.575256,1332.018188 1011.988098,1331.857178   C1025.898193,1326.435059 1039.880981,1321.183960 1053.640259,1315.401123   C1057.735718,1313.680054 1061.198486,1310.453247 1065.000488,1307.984253   C1065.000488,1307.984253 1064.929810,1307.938843 1065.689941,1308.017822   C1070.456421,1305.332397 1075.222900,1302.646973 1079.992676,1300.008667   C1079.992676,1300.008667 1079.955078,1299.980347 1080.423096,1299.951416   C1080.737671,1299.841797 1080.965942,1299.636353 1081.456909,1299.072266   C1081.456909,1299.072266 1081.889404,1299.010620 1082.525391,1299.015747   C1083.011108,1298.646729 1083.496704,1298.277588 1083.979980,1297.977539   C1083.979980,1297.977539 1083.921509,1297.941040 1084.541626,1297.953857   C1085.017822,1297.596924 1085.493896,1297.239868 1085.964844,1296.956665   C1085.964844,1296.956665 1085.904419,1296.913696 1086.642212,1296.978638   C1088.355713,1295.868164 1090.069092,1294.757690 1091.924316,1293.786865   C1091.924316,1293.786865 1091.750610,1293.689453 1092.403687,1293.791992   C1092.860840,1293.395264 1093.317993,1292.998535 1093.793823,1292.705688   C1093.793823,1292.705688 1093.688477,1292.698486 1094.232422,1292.691162   C1094.490601,1292.453369 1094.748901,1292.215576 1095.004639,1292.010742   C1095.004639,1292.010742 1094.974731,1291.996948 1095.589111,1292.003174   C1096.055542,1291.646362 1096.522095,1291.289673 1096.996094,1290.994263   C1096.996094,1290.994263 1096.943481,1290.961670 1097.702393,1291.013916   C1103.842407,1287.801270 1110.124146,1284.826416 1116.065918,1281.281616   C1119.329468,1279.334839 1122.020386,1276.427979 1125.000000,1274.000000   C1125.000000,1274.000000 1124.959595,1273.963257 1125.705688,1274.044067   C1129.461426,1271.303345 1133.217163,1268.562622 1137.189209,1265.409912   C1137.428711,1265.185791 1137.712280,1265.076294 1138.760864,1265.097046   C1139.703613,1264.234497 1140.646240,1263.371948 1141.814575,1262.894775   C1141.814575,1262.894775 1141.617676,1262.493896 1142.329468,1262.694580   C1143.883423,1261.451294 1145.437378,1260.207886 1147.002197,1259.005615   C1147.002197,1259.005615 1146.964111,1258.986816 1147.572144,1258.957642   C1148.108398,1258.407837 1148.644531,1257.858032 1149.668701,1256.837036   C1154.852295,1252.927246 1160.117798,1249.120972 1165.206543,1245.091431   C1211.052856,1208.787842 1251.725220,1167.617188 1284.407104,1118.851074   C1313.880615,1074.872070 1337.296875,1027.985229 1352.791748,977.297913   C1365.145752,936.885193 1373.122559,895.540710 1375.812500,853.393555   C1378.932861,804.501465 1375.889038,755.903137 1365.652466,707.849426   C1356.781982,666.209229 1344.138184,625.903442 1326.014282,587.258240   C1300.913452,533.736267 1268.758911,485.186279 1227.781494,442.454956   C1173.976562,386.347137 1111.247192,343.499054 1039.184082,314.359131   C968.057800,285.598053 894.022583,273.522675 817.486938,276.105499   C813.100098,276.253540 808.743896,277.306915 803.401306,278.107513   C793.070984,278.093079 782.739380,278.179840 772.410583,278.047211   C718.630249,277.356750 666.263855,286.079590 615.126160,302.255707   C550.035645,322.845490 491.542389,355.564484 439.174316,399.316742   C437.747620,400.508667 435.891235,401.186310 434.350708,401.446869   C449.957245,387.198212 464.939270,372.183502 481.293274,358.851746   C522.188782,325.513794 567.324463,298.997467 615.937378,278.473541   C673.234741,254.283112 732.753235,238.780502 794.788635,233.405777   C835.933899,229.840942 876.996460,230.943634 917.929199,236.399323   C966.711487,242.901230 1013.894836,255.643311 1059.221680,274.645142   C1156.196289,315.298615 1237.024414,377.222260 1301.241089,460.608765   C1309.248291,471.006317 1316.838013,481.725403 1324.750366,492.848083   C1325.093628,493.015381 1325.437012,493.182678 1325.780151,493.350006   C1325.597046,492.829224 1325.413818,492.308441 1325.203857,491.062927   C1324.654175,489.852570 1324.174316,488.604645 1323.545044,487.437256   C1294.285034,433.158081 1258.815186,383.515869 1214.993774,339.875458   C1166.383545,291.466125 1110.487671,253.703918 1048.260498,225.425598   C984.627563,196.508514 917.612549,181.098999 847.670471,179.061783   C809.116943,177.938828 770.781189,180.367371 732.677124,186.649750   C674.413696,196.255905 619.089294,214.709167 566.306641,241.020691   C524.186523,262.017059 485.748444,288.494293 450.196808,319.220398   C415.876801,348.882080 385.908691,382.498077 360.046326,419.742554   C334.351990,456.744995 314.491180,496.665192 299.737274,539.266052   C284.757660,582.518616 276.423004,626.985291 273.221802,672.523071   C273.081879,674.513855 273.409332,676.537537 273.519073,678.545898   C273.872589,678.546631 274.226105,678.547424 274.579620,678.548218   C279.603027,659.132141 284.626434,639.716125 289.726410,621.157410   C290.022064,639.610718 299.594391,652.020996 316.804413,656.657898   C324.371704,658.696716 331.705536,657.286072 339.019135,655.733154   C431.205322,636.159119 516.532043,599.867615 596.319519,550.075134   C617.642334,536.768372 638.876160,523.279297 662.005676,513.189575   C701.808044,495.826721 743.443665,489.075928 786.750671,490.907196   C823.536499,492.462677 858.885620,500.252319 891.682373,516.694275   C914.833130,528.300415 936.636475,542.606995 958.954102,555.854858   C966.061035,560.073547 972.887756,564.764221 980.910706,569.926147   C964.777954,580.797363 949.498474,591.093567 933.630432,600.957703   C931.693420,599.381287 929.701965,597.866760 927.827637,596.219055   C906.480896,577.452759 882.545166,562.901550 856.049683,552.691589   C818.482483,538.215210 779.508911,532.826965 739.806274,539.384521   C666.381470,551.511841 608.922485,589.091187 572.241089,654.126587   C529.116943,730.584900 529.673584,809.085999 573.086487,885.002136   C614.393799,957.236328 679.512573,994.533691 762.031738,1000.862488   C798.162598,1003.633484 832.934570,996.164612 866.067688,981.378235   C918.187195,958.118774 956.858826,920.686279 981.767090,869.554199   C1004.362854,823.169250 1010.424744,774.238098 1000.027283,723.609680   C997.498962,711.298279 993.173096,699.356018 990.199341,686.750183   C1004.847351,676.839661 1019.495361,666.929138 1034.605469,656.705994   C1035.249634,659.382812 1035.723145,660.976379 1036.011353,662.602905   C1040.974609,690.622925 1045.874268,718.654358 1050.931519,746.657410   C1051.373657,749.105347 1052.816528,751.372437 1054.498779,753.773621   C1055.784668,752.595093 1057.398438,751.624268 1058.299561,750.201904   C1062.119263,744.172424 1065.780640,738.040222 1069.403809,731.888977   C1086.366455,703.090759 1103.385132,674.324890 1120.189331,645.434387   C1125.678833,635.996582 1125.837402,635.664124 1136.147217,638.909485   C1136.782593,639.109497 1137.407837,639.347168 1138.050781,639.517395   C1160.719482,645.519226 1183.369019,651.595276 1206.067383,657.482849   C1220.937866,661.339966 1234.872437,660.540466 1247.351562,649.903320   C1257.620972,641.149719 1262.378418,626.382751 1258.353882,613.447693   C1251.206421,590.474731 1241.180664,568.715576 1229.711548,547.694580   C1220.087158,530.054871 1209.213257,513.095459 1198.834717,495.869690   C1196.686523,492.304443 1194.282349,488.893494 1191.996216,485.411407   C1194.815674,486.750244 1196.628784,488.831665 1198.576416,490.778503   C1203.686523,495.886810 1208.855225,500.936432 1213.996460,506.002441   C1213.996460,506.002441 1213.991089,505.997498 1213.951416,506.715729   C1214.978271,507.806946 1216.005127,508.898193 1216.994507,509.998566   C1216.994507,509.998566 1217.016846,509.967102 1216.973999,510.685333   C1218.276978,512.152100 1219.579834,513.618835 1220.980469,515.029114   C1220.980469,515.029114 1220.907837,515.115417 1220.906494,515.791321   C1221.609131,516.529785 1222.311768,517.268250 1222.990723,518.004211   C1222.990723,518.004211 1222.997681,517.981262 1222.962280,518.676880   C1223.664185,519.438782 1224.366211,520.200684 1225.008301,520.994263   C1225.008301,520.994263 1225.035889,520.932373 1225.163330,521.417053   C1225.411743,521.628784 1225.660156,521.840515 1225.997070,522.026489   C1225.997070,522.026489 1225.922974,522.081421 1225.906982,522.758728   C1226.591797,523.518677 1227.276733,524.278687 1228.000000,525.002441   C1228.000000,525.002441 1227.956909,525.031555 1227.920288,525.781494   C1233.491821,534.973083 1239.040771,544.178528 1244.676392,553.330688   C1245.139160,554.082214 1246.190186,554.471436 1247.000000,555.000000   C1247.000000,555.000000 1246.966919,555.025696 1246.916626,555.775391   C1249.622925,560.178162 1252.329224,564.580994 1255.000000,569.001343   C1255.000000,569.001343 1255.021729,568.968384 1254.962646,569.734680   C1258.401001,577.370178 1261.634033,585.107178 1265.344604,592.608032   C1268.155762,598.291016 1271.575684,603.672974 1274.951904,609.490173   C1274.951904,609.490173 1274.991455,609.865356 1274.963013,610.503296   C1275.306030,611.008362 1275.648926,611.513428 1275.994507,612.004944   C1275.994507,612.004944 1275.981934,611.999146 1275.900757,612.740234   C1276.653931,614.139221 1277.407227,615.538269 1278.079590,616.956299   C1278.079590,616.956299 1278.115112,616.881287 1278.069458,617.497253   C1278.374878,618.002625 1278.680176,618.507996 1279.000000,619.000000   C1279.000000,619.000000 1278.982056,619.006714 1278.911255,619.736755   C1279.609131,621.161926 1280.307007,622.587158 1280.989258,624.001709   C1280.989258,624.001709 1280.996460,623.983704 1280.931274,624.786865   C1281.219360,626.080688 1281.380249,627.419006 1281.814819,628.661621   C1286.533447,642.150330 1291.265381,655.634521 1296.061157,669.095947   C1297.608154,673.438293 1299.353027,677.710144 1300.985474,682.000916   C1300.985474,682.000916 1300.998901,681.979309 1300.893555,682.817017   C1301.245728,684.775635 1301.479858,686.764099 1301.967407,688.688416   C1311.294922,725.488892 1318.034912,762.751953 1319.779785,800.700928   C1321.439087,836.788513 1320.486938,872.912415 1314.409302,908.588806   C1310.172852,933.457581 1304.220703,958.033752 1299.054077,982.744568   C1298.380737,985.965271 1297.821655,989.209839 1297.228760,992.718018   C1297.228760,992.718018 1297.035400,992.913879 1296.490234,993.394287   C1293.011108,1002.715576 1289.426025,1011.999207 1286.094482,1021.372986   C1284.223999,1026.635742 1282.772461,1032.047241 1281.145264,1037.681641   C1281.145264,1037.681641 1280.950439,1037.896606 1280.331055,1038.312622   C1279.944092,1039.702271 1279.557129,1041.091797 1279.201782,1042.737305   C1279.201782,1042.737305 1278.999756,1042.897339 1278.384521,1043.270752   C1277.697754,1045.266602 1277.010864,1047.262573 1276.263672,1049.158081   C1276.263672,1049.158081 1276.373657,1049.198486 1275.702515,1049.470825   C1274.790161,1052.001465 1273.877686,1054.531982 1272.904541,1057.469360   C1272.904541,1057.469360 1272.718872,1057.836182 1272.089111,1058.081787   C1269.679443,1063.325928 1267.269775,1068.570190 1264.905762,1073.874756   C1264.905762,1073.874756 1264.840698,1073.913574 1264.182739,1074.086182   C1263.811768,1074.408813 1263.307861,1074.659668 1263.089233,1075.064575   C1256.535522,1087.200073 1249.988037,1099.338989 1243.522583,1111.521484   C1243.010864,1112.485962 1243.100220,1113.769165 1242.991455,1114.988770   C1242.991455,1114.988770 1242.894409,1114.923462 1242.234863,1115.085449   C1241.821777,1116.061523 1241.408691,1117.037598 1240.992798,1117.995361   C1240.992798,1117.995361 1241.009888,1117.992310 1240.296387,1118.084106   C1239.502197,1119.692383 1238.708008,1121.300659 1237.995117,1122.990723   C1237.995117,1122.990723 1237.899536,1122.926514 1237.208618,1123.032471   C1236.144775,1125.033203 1235.080933,1127.033936 1234.000000,1128.999390   C1234.000000,1128.999390 1234.036621,1129.013550 1233.329712,1129.079224   C1232.223633,1131.061523 1231.117554,1133.043701 1229.995117,1134.999756   C1229.995117,1134.999756 1230.025269,1135.006470 1229.329834,1135.056152   C1228.491943,1135.798462 1227.482666,1136.416626 1226.842651,1137.302002   C1220.185181,1146.512573 1213.540527,1155.733398 1207.012573,1165.035889   C1205.743286,1166.844604 1204.992676,1169.017212 1203.995117,1170.995117   C1203.995117,1170.995117 1204.022461,1171.002441 1203.325317,1171.041992   C1200.555786,1174.706909 1197.786377,1178.371826 1195.001831,1181.995605   C1195.001831,1181.995605 1195.040161,1182.016724 1194.337402,1182.032959   C1192.249878,1184.718018 1190.162354,1187.403076 1188.011963,1190.012573   C1188.011963,1190.012573 1188.096436,1190.063110 1187.391602,1190.096191   C1185.926147,1192.067993 1184.460571,1194.039673 1182.995117,1195.995117   C1182.995117,1195.995117 1183.010132,1195.990723 1182.538696,1196.198242   C1182.366089,1196.486084 1182.193481,1196.773926 1182.005615,1197.003906   C1182.005615,1197.003906 1182.058838,1197.031616 1181.356323,1197.037354   C1179.944214,1198.143066 1178.394165,1199.112183 1177.141846,1200.376099   C1166.553467,1211.062134 1155.978027,1221.761719 1145.515869,1232.570679   C1144.019531,1234.116577 1143.149658,1236.268921 1141.765625,1238.642212   C1141.194336,1239.078247 1140.622925,1239.514160 1139.307129,1239.921265   C1137.946533,1241.363525 1136.585938,1242.805786 1134.985718,1244.124268   C1134.985718,1244.124268 1135.231934,1244.229248 1134.530273,1244.171143   C1133.698242,1245.136475 1132.866089,1246.101807 1132.006470,1247.006348   C1132.006470,1247.006348 1132.066040,1247.036255 1131.427124,1247.083008   C1130.935181,1247.701050 1130.443237,1248.318970 1129.986328,1249.002441   C1129.986328,1249.002441 1129.928955,1248.954834 1129.471558,1249.056274   C1129.170898,1249.208008 1128.986816,1249.448853 1128.918701,1249.890259   C1128.918701,1249.890259 1128.807617,1249.881958 1128.218018,1249.964478   C1127.870728,1250.405884 1127.523315,1250.847290 1127.180298,1251.206543   C1127.180298,1251.206543 1127.257690,1251.234741 1126.589722,1251.200684   C1126.070557,1251.821167 1125.551392,1252.441650 1125.005249,1253.004883   C1125.005249,1253.004883 1125.064087,1253.028687 1124.566650,1253.159912   C1124.372437,1253.430664 1124.178223,1253.701294 1124.000000,1254.000000   C1124.000000,1254.000000 1123.972656,1253.982666 1123.501831,1254.095459  M1135.810059,1114.104370   C1134.764282,1115.572754 1133.866577,1117.178589 1132.651367,1118.489868   C1092.653809,1161.643677 1047.370483,1198.098389 996.151550,1227.244751   C965.820679,1244.504395 934.303650,1259.055054 901.511292,1270.812988   C857.649597,1286.540039 812.546692,1296.915161 766.179871,1302.148560   C716.648621,1307.739014 667.311523,1306.029419 618.285156,1298.294678   C563.934692,1289.719971 511.757996,1273.361450 461.940491,1249.872192   C403.937408,1222.523560 351.589844,1186.815186 305.125305,1142.584717   C275.582184,1114.462036 249.788681,1083.122070 226.265717,1049.863770   C225.139114,1048.270996 223.884827,1046.768555 222.689987,1045.224121   C222.286346,1047.074219 222.574097,1048.369385 223.202103,1049.470459   C231.529739,1064.072266 239.443130,1078.936035 248.355133,1093.173950   C275.454590,1136.468872 307.886688,1175.440063 345.529846,1209.960693   C401.325348,1261.127930 465.111511,1299.264282 535.978760,1325.682007   C585.323364,1344.076660 636.479980,1354.212891 688.864746,1357.829346   C708.927429,1359.214355 729.159607,1358.478149 749.308289,1358.219971   C803.470337,1357.526123 855.626526,1345.627441 906.555420,1328.265991   C960.110596,1310.009277 1010.112000,1284.432007 1056.412109,1251.793335   C1100.993774,1220.365967 1139.714111,1182.910889 1172.801636,1139.502075   C1205.473389,1096.638428 1231.124268,1049.995605 1249.088989,999.241028   C1262.749023,960.648132 1271.030884,920.772522 1274.948364,880.018372   C1275.673584,872.472717 1275.876221,864.876770 1276.320190,857.304077   C1275.896973,857.276794 1275.473877,857.249451 1275.050659,857.222107   C1271.741455,869.365295 1268.432251,881.508423 1265.043213,892.826355   C1262.649414,862.218079 1245.323975,847.262207 1219.670898,847.376038   C1186.139282,847.524841 1153.419434,853.690796 1121.800903,864.854431   C1050.342773,890.084595 991.848145,932.695862 948.272339,995.166626   C920.690857,1034.707642 900.970703,1077.668945 891.415161,1125.055298   C886.403442,1149.908691 882.677185,1174.932129 884.644653,1200.415771   C885.947327,1217.288940 900.668213,1233.177490 917.476074,1236.225342   C928.893799,1238.295898 939.222717,1234.150513 949.416565,1230.186035   C1004.079041,1208.926636 1054.824097,1180.722900 1100.430176,1143.672241   C1112.431763,1133.922241 1123.824463,1123.422974 1135.810059,1114.104370  M621.113647,1238.041626   C632.896362,1236.532227 643.632263,1232.275513 651.238586,1223.062378   C655.642151,1217.728516 660.592773,1210.993530 661.045288,1204.588745   C662.558777,1183.163330 661.440002,1161.639648 657.794006,1140.364014   C647.165894,1078.344849 622.714233,1022.537476 582.236938,974.147583   C542.719421,926.904907 494.878265,891.101257 436.918030,869.194458   C400.085114,855.272888 362.243439,847.598389 322.790894,847.767944   C294.006317,847.891663 276.983185,876.579346 283.589478,900.026123   C301.324585,962.971130 332.072052,1019.090576 372.373169,1070.231567   C379.766022,1079.612915 387.465027,1088.752930 394.410278,1098.498291   C384.947357,1089.416382 374.985413,1080.794678 366.111115,1071.170044   C334.101715,1036.453979 307.561371,997.828247 285.551178,956.081543   C251.993851,892.433350 233.120270,824.461304 227.418335,752.943115   C224.049393,710.687500 225.422043,668.484863 231.894577,626.393616   C240.285431,571.827393 255.966629,519.635437 279.716858,469.875031   C315.667664,394.552490 366.969269,331.220398 430.574799,277.542236   C458.414948,254.047318 488.769379,234.212433 519.918030,215.500870   C521.351990,214.639404 522.701172,213.636703 524.089844,212.699783   C523.868591,212.274918 523.647278,211.850037 523.426025,211.425171   C519.614685,212.903931 515.751465,214.262329 511.999847,215.879700   C462.793457,237.093246 417.248566,264.491821 375.447876,297.947815   C345.593628,321.842224 318.815125,348.981873 294.407043,378.415070   C261.356476,418.270111 234.670990,462.028137 214.177521,509.592010   C192.407578,560.118469 178.820724,612.806824 173.131302,667.438782   C168.525589,711.664612 169.105957,755.909241 175.770569,799.968323   C185.702271,865.625610 206.569260,927.553955 238.854630,985.635864   C272.203949,1045.631836 315.470306,1097.499390 368.791382,1140.472900   C427.181396,1187.531616 493.028015,1220.512329 565.567078,1240.240112   C610.624329,1252.494141 656.342285,1259.511719 702.944336,1261.171143   C705.051514,1261.246216 707.163696,1261.180786 709.273499,1261.180786   C709.281677,1260.651855 709.289795,1260.122925 709.297913,1259.594116   C702.819763,1258.358154 696.267029,1257.421875 689.876770,1255.832642   C666.665283,1250.060059 643.508118,1244.068848 621.113647,1238.041626  z"
   id="path28"
   style="fill-rule:evenodd" />
<path
   fill="#16385D"
   opacity="1.000000"
   stroke="none"
   d=" M434.235199,402.103760   C435.891235,401.186310 437.747620,400.508667 439.174316,399.316742   C491.542389,355.564484 550.035645,322.845490 615.126160,302.255707   C666.263855,286.079590 718.630249,277.356750 772.410583,278.047211   C782.739380,278.179840 793.070984,278.093079 804.302734,278.050415   C812.494995,278.639008 819.794006,279.204895 827.075439,279.943878   C863.407166,283.630951 898.984192,291.161316 933.701721,302.323456   C992.620789,321.266693 1046.538696,349.907104 1094.999634,388.423706   C1109.804688,400.190765 1123.435059,413.435760 1137.765625,426.338745   C1138.918335,427.211609 1139.908691,427.749603 1140.893799,428.211365   C1140.888306,428.135132 1140.737305,428.158691 1140.705200,428.523102   C1141.086792,428.987396 1141.500366,429.087311 1141.908691,429.141846   C1141.903198,429.096497 1141.814209,429.117035 1141.755127,429.491486   C1142.115234,429.942627 1142.534546,430.019318 1142.967041,430.062103   C1142.980103,430.028168 1142.910767,430.050323 1142.792480,430.419617   C1143.102539,430.885956 1143.530640,430.983002 1143.968384,431.046814   C1143.977905,431.013611 1143.912720,431.036652 1143.691284,431.356506   C1145.182617,433.698761 1146.829224,435.781952 1148.618164,437.734467   C1175.366577,466.928070 1199.247925,498.251373 1218.727173,532.786499   C1232.555542,557.303223 1245.432739,582.308838 1254.643188,608.999268   C1257.971558,618.644592 1259.359863,628.611938 1254.074707,638.040833   C1245.820801,652.765808 1229.802124,660.442444 1213.381348,656.467102   C1186.408691,649.937378 1159.628540,642.600891 1132.830566,635.369995   C1125.080933,633.278931 1125.134155,632.883911 1121.062500,639.775574   C1098.626465,677.750244 1076.214722,715.739441 1053.794678,753.723572   C1052.816528,751.372437 1051.373657,749.105347 1050.931519,746.657410   C1045.874268,718.654358 1040.974609,690.622925 1036.011353,662.602905   C1035.723145,660.976379 1035.249634,659.382812 1034.605469,656.705994   C1019.495361,666.929138 1004.847351,676.839661 989.674316,687.153931   C981.981201,692.403198 974.876221,697.345764 967.620789,702.056885   C963.444580,704.768555 962.493958,707.782227 963.546997,712.918457   C966.507690,727.359070 968.547241,741.988525 970.492554,756.574341   C953.547546,756.750488 937.053833,756.679077 920.575134,757.142212   C913.443054,757.342651 908.434692,763.313171 908.666077,770.007324   C908.895935,776.656433 913.251953,780.885803 920.890198,781.016968   C937.545898,781.302979 954.207031,781.273682 970.934021,781.800293   C969.940247,805.235779 963.758728,827.051636 955.054810,848.169678   C948.820618,863.295532 950.413147,860.839355 937.749878,854.008972   C929.127747,849.358215 920.721558,844.308289 912.129395,839.600159   C909.203613,837.996948 906.226562,837.803406 903.436829,840.468262   C898.591431,845.096680 898.938599,849.790527 905.263062,853.831604   C915.198181,860.179871 925.400269,866.109314 935.454712,872.272705   C940.956604,875.645325 940.957520,875.721924 937.307922,880.702271   C924.058411,898.782776 908.982178,915.115784 891.018005,928.632812   C887.468811,931.303406 883.632202,933.591980 879.684448,935.816284   C872.528625,923.817749 865.723267,911.994995 858.655029,900.331482   C855.541321,895.193420 851.982605,894.166016 847.332092,896.274719   C841.965637,898.707947 840.744019,903.090393 844.288086,909.719788   C850.717896,921.747192 857.470276,933.602173 863.827515,945.725952   C855.184937,949.441101 846.940796,953.346313 838.391418,956.395508   C821.494080,962.422119 804.227722,966.975769 786.049011,966.488403   C785.897827,949.729919 785.772400,933.436584 785.650635,917.143250   C785.603149,910.786133 780.471558,905.423096 773.857422,904.827820   C767.013428,904.211853 761.877869,908.142822 760.956543,915.036133   C760.430115,918.974854 760.199402,922.976685 760.163635,926.953064   C760.043945,940.253479 760.072144,953.555176 759.596191,966.977051   C732.035645,965.393066 706.537659,957.888855 682.509460,945.386963   C684.649414,941.409119 686.596130,937.738159 688.599609,934.098511   C693.410461,925.358459 698.402283,916.713501 703.009766,907.868042   C705.321960,903.428833 704.077271,899.276611 700.368347,896.895447   C696.287231,894.275391 692.409790,894.731445 689.098022,898.216309   C687.513489,899.883484 686.166016,901.833008 684.986084,903.818115   C678.617126,914.532532 672.334351,925.298096 665.670288,936.008972   C652.727234,925.174438 639.542542,914.979370 627.751404,903.369019   C619.803772,895.543213 613.823425,885.719421 607.191406,876.558960   C611.153748,873.835571 614.837463,871.263184 618.632019,868.866211   C627.069397,863.536194 635.680237,858.471313 643.984558,852.944031   C648.354919,850.035217 648.512268,845.258728 645.035828,841.337402   C641.571716,837.430237 637.893250,836.665894 632.469177,839.683167   C620.547180,846.314880 608.802429,853.265198 596.673279,859.919312   C592.816101,851.396606 588.788391,843.206909 585.827271,834.648254   C579.863281,817.409851 575.334656,799.800720 575.592529,781.360229   C592.690613,781.354309 609.327698,781.389038 625.964111,781.306946   C627.696838,781.298401 629.728821,781.051453 631.102661,780.135864   C635.996216,776.874390 638.254761,770.443176 636.722168,765.248718   C635.149902,759.919556 631.396057,756.992493 624.591309,756.891785   C608.134033,756.648376 591.671997,756.731140 575.126221,756.195923   C577.176025,728.366455 584.107239,702.390808 597.489868,678.198975   C600.465332,679.634583 603.170776,680.912537 605.724304,682.443787   C614.845764,687.913513 623.778809,693.719666 633.101562,698.816162   C635.427002,700.087402 639.886902,700.374512 641.682861,698.966919   C644.012329,697.141113 645.823059,693.105957 645.669128,690.135254   C645.539429,687.632568 642.753357,684.562012 640.331665,683.004761   C629.295593,675.907898 617.973022,669.256409 606.805054,662.109253   C616.655151,644.964783 629.588379,630.769165 644.177795,618.118408   C650.981140,612.219116 658.651794,607.320007 666.196899,602.184509   C673.393677,614.093994 680.162476,625.885803 687.318970,637.437317   C690.941711,643.284790 695.271301,644.201965 700.322876,641.105652   C705.052368,638.206665 705.873108,634.134888 702.548401,628.295959   C695.739502,616.337952 688.790588,604.459595 682.149048,592.334412   C696.653564,584.348755 711.916077,579.284363 727.746155,576.121094   C738.425110,573.987122 749.299683,572.831848 760.083252,571.691650   C760.414612,588.963074 760.621643,605.785767 761.155762,622.597961   C761.335815,628.266479 767.360779,633.000427 773.276489,632.849304   C779.191895,632.698181 784.873779,628.150330 784.948120,622.707092   C785.182251,605.561340 785.082214,588.411072 785.550903,571.168579   C794.048157,572.082703 802.196838,572.629028 810.145935,574.191040   C828.932617,577.882751 847.189453,583.342773 864.194336,592.791565   C861.250000,598.001709 858.202148,602.744995 855.407593,607.633118   C851.038879,615.274902 846.624451,622.905090 842.659851,630.757568   C840.566650,634.903442 842.796997,639.347412 847.438721,641.856628   C851.241943,643.912659 854.849060,643.375427 856.985107,639.648132   C864.323730,626.842896 871.371582,613.871094 878.847046,601.036194   C886.963989,606.732605 894.734314,612.397766 902.585815,617.948120   C904.473999,619.282959 906.161011,621.456116 909.111877,619.286438   C917.391174,613.198730 925.838196,607.339294 934.218994,601.389771   C949.498474,591.093567 964.777954,580.797363 980.910706,569.926147   C972.887756,564.764221 966.061035,560.073547 958.954102,555.854858   C936.636475,542.606995 914.833130,528.300415 891.682373,516.694275   C858.885620,500.252319 823.536499,492.462677 786.750671,490.907196   C743.443665,489.075928 701.808044,495.826721 662.005676,513.189575   C638.876160,523.279297 617.642334,536.768372 596.319519,550.075134   C516.532043,599.867615 431.205322,636.159119 339.019135,655.733154   C331.705536,657.286072 324.371704,658.696716 316.804413,656.657898   C299.594391,652.020996 290.022064,639.610718 289.792145,620.311035   C294.837769,605.600830 299.149414,591.451172 304.931030,577.930176   C318.698883,545.732422 336.667755,515.860291 356.940460,487.338776   C377.920563,457.821960 402.798187,431.821838 429.269196,406.982849   C429.756439,406.675446 429.946136,406.357086 430.083313,406.039673   C430.030762,406.040558 430.036285,406.145508 430.340271,406.110199   C430.808899,405.727295 430.973480,405.379730 431.079590,405.032562   C431.021118,405.032990 431.024719,405.149841 431.341309,405.142883   C431.860291,404.797394 432.062714,404.458832 432.178864,404.122681   C432.092621,404.125061 432.108521,404.296906 432.469604,404.278992   C433.311920,403.529297 433.793121,402.797455 434.237732,402.045959   C434.201141,402.026306 434.235199,402.103760 434.235199,402.103760  M1011.984924,552.521729   C1018.634277,557.699768 1025.283691,562.877747 1032.339844,568.372620   C1028.729736,570.938110 1025.795654,573.106567 1022.779480,575.154236   C979.139648,604.780090 935.545349,634.473389 891.823120,663.977051   C856.103699,688.080444 820.188965,711.894165 784.454285,735.975037   C776.973877,741.015930 770.006836,741.476257 762.332703,736.364990   C745.578918,725.206360 728.310486,714.797546 711.838379,703.246765   C700.545532,695.327698 689.108826,690.592834 675.148499,693.737793   C670.965820,694.680054 666.540222,694.521851 662.235291,694.959351   C661.164185,695.068176 660.129211,695.532715 658.644531,695.957764   C661.065430,705.947937 663.144775,715.683105 665.906067,725.220886   C666.736511,728.089539 668.933594,731.205261 671.406982,732.854797   C692.587585,746.980103 714.065552,760.660400 735.209656,774.838989   C738.570679,777.092712 741.386230,780.816467 743.289795,784.467529   C749.762268,796.881714 759.528381,804.473633 773.587402,804.722046   C787.247742,804.963562 796.765320,797.087708 802.954712,785.649902   C805.934265,780.144043 809.558044,775.916016 814.641174,772.477661   C887.400330,723.261963 960.108521,673.971069 1032.850586,624.730042   C1040.261230,619.713501 1047.810791,614.902039 1055.833252,609.643250   C1059.656494,631.611206 1063.339355,652.772156 1067.022217,673.933044   C1067.452515,674.008423 1067.882812,674.083862 1068.312988,674.159241   C1099.307129,621.558594 1130.301270,568.957886 1162.057983,515.062988   C1100.134399,518.853699 1039.607178,522.559021 979.079895,526.264282   C979.006958,526.718872 978.934082,527.173462 978.861206,527.628052   C989.713135,535.780334 1000.565063,543.932678 1011.984924,552.521729  z"
   id="path29"
   style="fill-rule:evenodd" />
<path
   fill="#15375D"
   opacity="1.000000"
   stroke="none"
   d=" M395.022705,1098.004395   C387.465027,1088.752930 379.766022,1079.612915 372.373169,1070.231567   C332.072052,1019.090576 301.324585,962.971130 283.589478,900.026123   C276.983185,876.579346 294.006317,847.891663 322.790894,847.767944   C362.243439,847.598389 400.085114,855.272888 436.918030,869.194458   C494.878265,891.101257 542.719421,926.904907 582.236938,974.147583   C622.714233,1022.537476 647.165894,1078.344849 657.794006,1140.364014   C661.440002,1161.639648 662.558777,1183.163330 661.045288,1204.588745   C660.592773,1210.993530 655.642151,1217.728516 651.238586,1223.062378   C643.632263,1232.275513 632.896362,1236.532227 620.294800,1238.046387   C616.118469,1237.120239 612.697266,1236.372803 609.412842,1235.231567   C531.824585,1208.272095 464.043518,1165.468872 404.987579,1108.137817   C404.274109,1107.246948 403.566772,1106.798462 402.861145,1106.278809   C402.862854,1106.207764 402.636230,1106.068359 402.574890,1105.658691   C402.041626,1105.062866 401.569672,1104.876587 401.115112,1104.798340   C401.132477,1104.906372 401.346375,1104.860840 401.385010,1104.475464   C400.633606,1103.646729 399.843536,1103.203369 399.054138,1102.847900   C399.054840,1102.935791 399.230438,1102.928223 399.274994,1102.521362   C398.872162,1101.889160 398.424744,1101.663940 397.897156,1101.286743   C397.713043,1100.807861 397.609161,1100.480835 397.346008,1099.832031   C396.440826,1098.997314 395.695007,1098.484375 394.976379,1097.960449   C395.003571,1097.949219 395.022675,1098.004395 395.022705,1098.004395  z"
   id="path30"
   style="fill-rule:evenodd" />
<path
   fill="#15375D"
   opacity="1.000000"
   stroke="none"
   d=" M1135.496826,1113.267700   C1123.824463,1123.422974 1112.431763,1133.922241 1100.430176,1143.672241   C1054.824097,1180.722900 1004.079041,1208.926636 949.416565,1230.186035   C939.222717,1234.150513 928.893799,1238.295898 917.476074,1236.225342   C900.668213,1233.177490 885.947327,1217.288940 884.644653,1200.415771   C882.677185,1174.932129 886.403442,1149.908691 891.415161,1125.055298   C900.970703,1077.668945 920.690857,1034.707642 948.272339,995.166626   C991.848145,932.695862 1050.342773,890.084595 1121.800903,864.854431   C1153.419434,853.690796 1186.139282,847.524841 1219.670898,847.376038   C1245.323975,847.262207 1262.649414,862.218079 1265.022949,893.662354   C1247.634766,959.780151 1216.809814,1018.183655 1174.444824,1070.566772   C1164.529175,1082.827148 1153.548950,1094.226685 1142.773560,1106.136475   C1141.993408,1106.859009 1141.498291,1107.467407 1141.004150,1108.039429   C1141.005127,1108.003052 1141.078003,1108.006104 1140.749268,1108.079346   C1140.192139,1108.751221 1139.963745,1109.349731 1139.841553,1109.946777   C1139.947754,1109.945190 1139.939087,1109.732788 1139.561523,1109.698975   C1138.730103,1110.428101 1138.276245,1111.190796 1137.891602,1111.963867   C1137.960815,1111.973999 1137.977905,1111.834961 1137.590698,1111.736694   C1136.625977,1112.161987 1136.048340,1112.685547 1135.485962,1113.238892   C1135.501099,1113.268677 1135.496826,1113.267700 1135.496826,1113.267700  z"
   id="path31"
   style="fill-rule:evenodd" />
<path
   fill="#FAF8F3"
   opacity="1.000000"
   stroke="none"
   d=" M1137.603394,426.003906   C1123.435059,413.435760 1109.804688,400.190765 1094.999634,388.423706   C1046.538696,349.907104 992.620789,321.266693 933.701721,302.323456   C898.984192,291.161316 863.407166,283.630951 827.075439,279.943878   C819.794006,279.204895 812.494995,278.639008 804.788757,277.966125   C808.743896,277.306915 813.100098,276.253540 817.486938,276.105499   C894.022583,273.522675 968.057800,285.598053 1039.184082,314.359131   C1111.247192,343.499054 1173.976562,386.347137 1227.781494,442.454956   C1268.758911,485.186279 1300.913452,533.736267 1326.014282,587.258240   C1344.138184,625.903442 1356.781982,666.209229 1365.652466,707.849426   C1375.889038,755.903137 1378.932861,804.501465 1375.812500,853.393555   C1373.122559,895.540710 1365.145752,936.885193 1352.791748,977.297913   C1337.296875,1027.985229 1313.880615,1074.872070 1284.407104,1118.851074   C1251.725220,1167.617188 1211.052856,1208.787842 1165.206543,1245.091431   C1160.117798,1249.120972 1154.852295,1252.927246 1149.132690,1257.125000   C1148.052490,1257.937622 1147.508301,1258.462280 1146.964111,1258.986816   C1146.964111,1258.986816 1147.002197,1259.005615 1146.663818,1259.031738   C1144.756104,1260.203247 1143.186890,1261.348511 1141.617676,1262.493896   C1141.617676,1262.493896 1141.814575,1262.894775 1141.396729,1262.789307   C1139.999268,1263.483154 1139.019653,1264.282227 1138.040161,1265.081421   C1137.712280,1265.076294 1137.428711,1265.185791 1136.730713,1265.689453   C1132.501343,1268.633667 1128.730469,1271.298462 1124.959595,1273.963257   C1124.959595,1273.963257 1125.000000,1274.000000 1124.627563,1273.989868   C1115.151245,1279.640381 1106.047363,1285.301025 1096.943481,1290.961670   C1096.943481,1290.961670 1096.996094,1290.994263 1096.683105,1290.965088   C1095.905029,1291.289673 1095.439941,1291.643311 1094.974731,1291.996948   C1094.974731,1291.996948 1095.004639,1292.010742 1094.731201,1291.992798   C1094.201416,1292.216064 1093.944946,1292.457275 1093.688477,1292.698486   C1093.688477,1292.698486 1093.793823,1292.705688 1093.482910,1292.674316   C1092.698242,1292.991821 1092.224487,1293.340698 1091.750610,1293.689453   C1091.750610,1293.689453 1091.924316,1293.786865 1091.505371,1293.749756   C1089.359131,1294.779663 1087.631836,1295.846680 1085.904419,1296.913696   C1085.904419,1296.913696 1085.964844,1296.956665 1085.655762,1296.911621   C1084.871704,1297.224731 1084.396606,1297.582886 1083.921509,1297.941040   C1083.921509,1297.941040 1083.979980,1297.977539 1083.665405,1297.942139   C1082.863647,1298.274658 1082.376587,1298.642578 1081.889404,1299.010620   C1081.889404,1299.010620 1081.456909,1299.072266 1081.033447,1299.189453   C1080.244019,1299.387695 1080.025635,1299.612305 1079.955078,1299.980347   C1079.955078,1299.980347 1079.992676,1300.008667 1079.626465,1299.986328   C1074.483521,1302.622314 1069.706665,1305.280640 1064.929810,1307.938965   C1064.929810,1307.938843 1065.000488,1307.984253 1064.602539,1307.955444   C1063.136108,1308.369629 1062.056396,1308.787354 1061.000732,1309.259399   C1048.147217,1315.007202 1035.296997,1320.762817 1022.292664,1326.335449   C1022.139404,1326.154541 1021.821777,1325.802490 1021.982422,1325.522217   C1023.448181,1324.176880 1024.753296,1323.111816 1026.058472,1322.046753   C1026.058472,1322.046753 1026.002808,1322.005005 1026.358032,1322.005737   C1028.156128,1321.011841 1029.598877,1320.017212 1031.041748,1319.022583   C1031.041748,1319.022583 1030.999634,1319.000000 1031.365356,1318.998657   C1040.840820,1313.344604 1049.950684,1307.691772 1059.060425,1302.039062   C1059.060425,1302.039062 1059.003174,1302.007812 1059.338379,1302.011597   C1060.481201,1301.369873 1061.289062,1300.724365 1062.096802,1300.078979   C1062.096802,1300.078979 1062.015137,1300.031372 1062.358765,1300.031738   C1063.500000,1299.380493 1064.297729,1298.728882 1065.095337,1298.077148   C1065.095337,1298.077148 1065.012695,1298.031494 1065.381348,1298.033325   C1067.518066,1296.702881 1069.286255,1295.370483 1071.054443,1294.038086   C1071.054443,1294.038086 1071.004517,1294.004395 1071.304932,1293.989502   C1071.871948,1293.692749 1072.138550,1293.410889 1072.405029,1293.129150   C1072.405029,1293.129150 1072.706909,1293.106323 1073.086670,1292.994751   C1073.667725,1292.599976 1073.869019,1292.316772 1074.070312,1292.033569   C1074.070312,1292.033569 1074.009644,1292.006104 1074.372437,1292.007202   C1089.305664,1280.909912 1103.876099,1269.811523 1118.446533,1258.713135   C1118.446533,1258.713135 1118.609741,1258.723389 1118.934082,1258.532593   C1120.456665,1257.192871 1121.654907,1256.043945 1122.853149,1254.895020   C1122.853149,1254.895020 1122.923218,1254.921387 1123.193359,1254.878174   C1123.633179,1254.550781 1123.802856,1254.266724 1123.972656,1253.982666   C1123.972656,1253.982666 1124.000000,1254.000000 1124.259033,1253.949219   C1124.700195,1253.608643 1124.882080,1253.318604 1125.064087,1253.028687   C1125.064087,1253.028687 1125.005249,1253.004883 1125.327148,1253.001709   C1126.185181,1252.410522 1126.721436,1251.822632 1127.257690,1251.234741   C1127.257690,1251.234741 1127.180298,1251.206543 1127.467285,1251.192871   C1128.105347,1250.746948 1128.456543,1250.314453 1128.807617,1249.881958   C1128.807617,1249.881958 1128.918701,1249.890259 1129.163086,1249.814453   C1129.734619,1249.579224 1129.908447,1249.317993 1129.928955,1248.954834   C1129.928955,1248.954834 1129.986328,1249.002441 1130.270264,1248.927490   C1131.057983,1248.247070 1131.562012,1247.641602 1132.066040,1247.036255   C1132.066040,1247.036255 1132.006470,1247.006348 1132.334473,1246.979736   C1133.518921,1246.045288 1134.375488,1245.137329 1135.231934,1244.229248   C1135.231934,1244.229248 1134.985718,1244.124268 1135.427124,1244.116211   C1137.262939,1242.722168 1138.657227,1241.336182 1140.051636,1239.950195   C1140.622925,1239.514160 1141.194336,1239.078247 1142.212891,1238.298462   C1147.239624,1233.670166 1152.046997,1229.601562 1156.350464,1225.055664   C1165.064453,1215.851196 1173.505249,1206.388062 1182.058838,1197.031616   C1182.058838,1197.031616 1182.005615,1197.003906 1182.287842,1196.981445   C1182.716797,1196.636230 1182.863525,1196.313477 1183.010132,1195.990723   C1183.010132,1195.990723 1182.995117,1195.995117 1183.314331,1195.900879   C1185.121216,1193.892090 1186.608765,1191.977661 1188.096436,1190.063110   C1188.096436,1190.063110 1188.011963,1190.012573 1188.368408,1189.959229   C1190.829834,1187.276123 1192.935059,1184.646362 1195.040161,1182.016724   C1195.040161,1182.016724 1195.001831,1181.995605 1195.335205,1181.923706   C1198.453247,1178.235352 1201.237915,1174.618896 1204.022461,1171.002441   C1204.022461,1171.002441 1203.995117,1170.995117 1204.321045,1170.904785   C1209.174438,1164.927490 1213.883423,1159.169434 1218.177124,1153.116699   C1222.348145,1147.237061 1226.093140,1141.055420 1230.025146,1135.006470   C1230.025269,1135.006470 1229.995117,1134.999756 1230.310425,1134.879883   C1231.762695,1132.844604 1232.899658,1130.929077 1234.036621,1129.013550   C1234.036621,1129.013550 1234.000000,1128.999390 1234.318848,1128.888916   C1235.724976,1126.827881 1236.812256,1124.877197 1237.899536,1122.926514   C1237.899536,1122.926514 1237.995117,1122.990723 1238.267456,1122.833618   C1239.363159,1121.115112 1240.186523,1119.553711 1241.009888,1117.992310   C1241.009888,1117.992310 1240.992798,1117.995361 1241.283936,1117.873535   C1242.014893,1116.808838 1242.454712,1115.866211 1242.894409,1114.923462   C1242.894409,1114.923462 1242.991455,1114.988770 1243.258301,1114.801758   C1247.988647,1106.699097 1252.605835,1098.864990 1256.862183,1090.839478   C1259.781372,1085.335205 1262.198975,1079.564941 1264.840820,1073.913574   C1264.840698,1073.913574 1264.905762,1073.874756 1265.161621,1073.652100   C1267.851318,1068.231812 1270.285156,1063.034058 1272.718994,1057.836182   C1272.718872,1057.836182 1272.904541,1057.469360 1273.231934,1057.066162   C1274.497437,1054.174683 1275.435547,1051.686646 1276.373657,1049.198486   C1276.373657,1049.198486 1276.263672,1049.158081 1276.562256,1048.995239   C1277.573730,1046.854004 1278.286743,1044.875732 1278.999756,1042.897339   C1278.999756,1042.897339 1279.201782,1042.737305 1279.456299,1042.360229   C1280.124146,1040.620972 1280.537354,1039.258789 1280.950439,1037.896606   C1280.950439,1037.896606 1281.145264,1037.681641 1281.421875,1037.292969   C1284.981689,1028.409668 1288.445679,1019.979004 1291.486816,1011.398438   C1293.633301,1005.342224 1295.206299,999.082642 1297.035400,992.913879   C1297.035400,992.913879 1297.228760,992.718018 1297.472412,992.295715   C1308.229492,958.606995 1314.907593,924.501282 1318.659058,889.896912   C1324.817261,833.094360 1322.698975,776.556335 1310.725586,720.572693   C1307.953003,707.607849 1304.265381,694.838562 1300.998901,681.979309   C1300.998901,681.979309 1300.985474,682.000916 1301.052246,681.605469   C1299.060547,674.199036 1297.341919,667.065613 1294.869019,660.203979   C1290.486328,648.043518 1285.645630,636.048157 1280.996460,623.983704   C1280.996460,623.983704 1280.989258,624.001709 1281.035522,623.654480   C1280.381836,621.873718 1279.682007,620.440186 1278.982178,619.006714   C1278.982056,619.006714 1279.000000,619.000000 1279.015869,618.696289   C1278.726196,617.888794 1278.420654,617.385071 1278.115112,616.881287   C1278.115112,616.881287 1278.079590,616.956299 1278.129150,616.592651   C1277.446411,614.819031 1276.714233,613.409058 1275.981934,611.999146   C1275.981934,611.999146 1275.994507,612.004944 1276.011963,611.692383   C1275.683350,610.875000 1275.337402,610.370178 1274.991455,609.865356   C1274.991455,609.865356 1274.951904,609.490173 1274.846924,608.966431   C1272.914551,604.357666 1271.252075,600.188843 1269.226318,596.204651   C1264.585693,587.078003 1259.767700,578.041504 1255.021729,568.968384   C1255.021729,568.968384 1255.000000,569.001343 1255.008545,568.629761   C1252.333618,563.847351 1249.650269,559.436523 1246.966919,555.025696   C1246.966919,555.025696 1247.000000,555.000000 1246.979004,554.655823   C1240.624390,544.551636 1234.290649,534.791626 1227.956909,525.031555   C1227.956909,525.031555 1228.000000,525.002441 1227.958496,524.704956   C1227.252197,523.632080 1226.587646,522.856750 1225.922974,522.081421   C1225.922974,522.081421 1225.997070,522.026489 1225.939819,521.771240   C1225.600342,521.321472 1225.318115,521.126953 1225.035889,520.932373   C1225.035889,520.932373 1225.008301,520.994263 1225.010376,520.659180   C1224.340820,519.543152 1223.669189,518.762207 1222.997681,517.981262   C1222.997681,517.981262 1222.990723,518.004211 1222.984131,517.687988   C1222.287598,516.619568 1221.597778,515.867493 1220.907837,515.115417   C1220.907837,515.115417 1220.980469,515.029114 1220.880371,514.729126   C1219.525757,512.941772 1218.271240,511.454437 1217.016846,509.967102   C1217.016846,509.967102 1216.994507,509.998566 1216.981689,509.667603   C1215.976318,508.223572 1214.983643,507.110535 1213.991089,505.997498   C1213.991089,505.997498 1213.996460,506.002441 1213.953491,505.665161   C1193.713623,479.577026 1171.841553,455.368225 1147.576538,433.370239   C1146.519165,432.411652 1145.141235,431.806458 1143.912720,431.036652   C1143.912720,431.036652 1143.977905,431.013611 1143.953369,430.753662   C1143.589600,430.345947 1143.250122,430.198120 1142.910767,430.050323   C1142.910767,430.050323 1142.980103,430.028168 1142.927246,429.765930   C1142.520874,429.374786 1142.167603,429.245911 1141.814209,429.117035   C1141.814209,429.117035 1141.903198,429.096497 1141.853882,428.844269   C1141.448853,428.447571 1141.093018,428.303131 1140.737305,428.158691   C1140.737305,428.158691 1140.888306,428.135132 1140.798340,427.850830   C1139.673340,427.045685 1138.638306,426.524811 1137.603394,426.003906  z"
   id="path32"
   style="fill-rule:evenodd" />
<path
   fill="#FAF8F3"
   opacity="1.000000"
   stroke="none"
   d=" M397.505310,1100.153931   C397.609161,1100.480835 397.713043,1100.807861 397.938232,1101.652100   C398.449829,1102.422363 398.840118,1102.675293 399.230408,1102.928223   C399.230438,1102.928223 399.054840,1102.935791 399.143372,1103.167358   C399.936707,1103.886230 400.641541,1104.373535 401.346375,1104.860840   C401.346375,1104.860840 401.132477,1104.906372 401.247467,1105.137451   C401.787048,1105.601807 402.211639,1105.835083 402.636230,1106.068359   C402.636230,1106.068359 402.862854,1106.207764 403.065369,1106.622559   C403.843170,1107.551636 404.418457,1108.065918 404.993744,1108.580200   C464.043518,1165.468872 531.824585,1208.272095 609.412842,1235.231567   C612.697266,1236.372803 616.118469,1237.120239 619.903198,1238.105713   C643.508118,1244.068848 666.665283,1250.060059 689.876770,1255.832642   C696.267029,1257.421875 702.819763,1258.358154 709.297913,1259.594116   C709.289795,1260.122925 709.281677,1260.651855 709.273499,1261.180786   C707.163696,1261.180786 705.051514,1261.246216 702.944336,1261.171143   C656.342285,1259.511719 610.624329,1252.494141 565.567078,1240.240112   C493.028015,1220.512329 427.181396,1187.531616 368.791382,1140.472900   C315.470306,1097.499390 272.203949,1045.631836 238.854630,985.635864   C206.569260,927.553955 185.702271,865.625610 175.770569,799.968323   C169.105957,755.909241 168.525589,711.664612 173.131302,667.438782   C178.820724,612.806824 192.407578,560.118469 214.177521,509.592010   C234.670990,462.028137 261.356476,418.270111 294.407043,378.415070   C318.815125,348.981873 345.593628,321.842224 375.447876,297.947815   C417.248566,264.491821 462.793457,237.093246 511.999847,215.879700   C515.751465,214.262329 519.614685,212.903931 523.426025,211.425171   C523.647278,211.850037 523.868591,212.274918 524.089844,212.699783   C522.701172,213.636703 521.351990,214.639404 519.918030,215.500870   C488.769379,234.212433 458.414948,254.047318 430.574799,277.542236   C366.969269,331.220398 315.667664,394.552490 279.716858,469.875031   C255.966629,519.635437 240.285431,571.827393 231.894577,626.393616   C225.422043,668.484863 224.049393,710.687500 227.418335,752.943115   C233.120270,824.461304 251.993851,892.433350 285.551178,956.081543   C307.561371,997.828247 334.101715,1036.453979 366.111115,1071.170044   C374.985413,1080.794678 384.947357,1089.416382 394.716492,1098.251343   C395.022675,1098.004395 395.003571,1097.949219 394.847961,1098.398926   C395.630005,1099.283813 396.567657,1099.718872 397.505310,1100.153931  z"
   id="path33"
   style="fill-rule:evenodd" />
<path
   fill="#FAF8F3"
   opacity="1.000000"
   stroke="none"
   d=" M1143.058594,1106.022217   C1153.548950,1094.226685 1164.529175,1082.827148 1174.444824,1070.566772   C1216.809814,1018.183655 1247.634766,959.780151 1265.062988,894.075012   C1268.432251,881.508423 1271.741455,869.365295 1275.050659,857.222107   C1275.473877,857.249451 1275.896973,857.276794 1276.320190,857.304077   C1275.876221,864.876770 1275.673584,872.472717 1274.948364,880.018372   C1271.030884,920.772522 1262.749023,960.648132 1249.088989,999.241028   C1231.124268,1049.995605 1205.473389,1096.638428 1172.801636,1139.502075   C1139.714111,1182.910889 1100.993774,1220.365967 1056.412109,1251.793335   C1010.112000,1284.432007 960.110596,1310.009277 906.555420,1328.265991   C855.626526,1345.627441 803.470337,1357.526123 749.308289,1358.219971   C729.159607,1358.478149 708.927429,1359.214355 688.864746,1357.829346   C636.479980,1354.212891 585.323364,1344.076660 535.978760,1325.682007   C465.111511,1299.264282 401.325348,1261.127930 345.529846,1209.960693   C307.886688,1175.440063 275.454590,1136.468872 248.355133,1093.173950   C239.443130,1078.936035 231.529739,1064.072266 223.202103,1049.470459   C222.574097,1048.369385 222.286346,1047.074219 222.689987,1045.224121   C223.884827,1046.768555 225.139114,1048.270996 226.265717,1049.863770   C249.788681,1083.122070 275.582184,1114.462036 305.125305,1142.584717   C351.589844,1186.815186 403.937408,1222.523560 461.940491,1249.872192   C511.757996,1273.361450 563.934692,1289.719971 618.285156,1298.294678   C667.311523,1306.029419 716.648621,1307.739014 766.179871,1302.148560   C812.546692,1296.915161 857.649597,1286.540039 901.511292,1270.812988   C934.303650,1259.055054 965.820679,1244.504395 996.151550,1227.244751   C1047.370483,1198.098389 1092.653809,1161.643677 1132.651367,1118.489868   C1133.866577,1117.178589 1134.764282,1115.572754 1135.653442,1113.686035   C1135.496826,1113.267700 1135.501099,1113.268677 1135.874512,1113.422119   C1136.824585,1112.995239 1137.401245,1112.415039 1137.977905,1111.834961   C1137.977905,1111.834961 1137.960815,1111.973999 1138.213867,1111.904785   C1138.957520,1111.134521 1139.448364,1110.433716 1139.939087,1109.732788   C1139.939087,1109.732788 1139.947754,1109.945190 1140.156494,1109.835938   C1140.602905,1109.153198 1140.840454,1108.579590 1141.078003,1108.006104   C1141.078003,1108.006104 1141.005127,1108.003052 1141.335693,1108.055908   C1142.130371,1107.413208 1142.594482,1106.717651 1143.058594,1106.022217  z"
   id="path34"
   style="fill-rule:evenodd" />
<path
   fill="#FAF8F3"
   opacity="1.000000"
   stroke="none"
   d=" M428.971649,406.971924   C402.798187,431.821838 377.920563,457.821960 356.940460,487.338776   C336.667755,515.860291 318.698883,545.732422 304.931030,577.930176   C299.149414,591.451172 294.837769,605.600830 289.753876,619.882324   C284.626434,639.716125 279.603027,659.132141 274.579620,678.548218   C274.226105,678.547424 273.872589,678.546631 273.519073,678.545898   C273.409332,676.537537 273.081879,674.513855 273.221802,672.523071   C276.423004,626.985291 284.757660,582.518616 299.737274,539.266052   C314.491180,496.665192 334.351990,456.744995 360.046326,419.742554   C385.908691,382.498077 415.876801,348.882080 450.196808,319.220398   C485.748444,288.494293 524.186523,262.017059 566.306641,241.020691   C619.089294,214.709167 674.413696,196.255905 732.677124,186.649750   C770.781189,180.367371 809.116943,177.938828 847.670471,179.061783   C917.612549,181.098999 984.627563,196.508514 1048.260498,225.425598   C1110.487671,253.703918 1166.383545,291.466125 1214.993774,339.875458   C1258.815186,383.515869 1294.285034,433.158081 1323.545044,487.437256   C1324.174316,488.604645 1324.654175,489.852570 1325.065918,491.553558   C1324.927979,492.044189 1324.620972,492.295563 1324.620972,492.295532   C1316.838013,481.725403 1309.248291,471.006317 1301.241089,460.608765   C1237.024414,377.222260 1156.196289,315.298615 1059.221680,274.645142   C1013.894836,255.643311 966.711487,242.901230 917.929199,236.399323   C876.996460,230.943634 835.933899,229.840942 794.788635,233.405777   C732.753235,238.780502 673.234741,254.283112 615.937378,278.473541   C567.324463,298.997467 522.188782,325.513794 481.293274,358.851746   C464.939270,372.183502 449.957245,387.198212 434.292969,401.775330   C434.235199,402.103760 434.201141,402.026306 433.918945,402.141022   C433.127350,402.936127 432.617920,403.616516 432.108521,404.296906   C432.108521,404.296906 432.092621,404.125061 431.886536,404.171265   C431.461853,404.528229 431.243286,404.839050 431.024719,405.149841   C431.024719,405.149841 431.021118,405.032990 430.809814,405.118225   C430.411133,405.517456 430.223694,405.831482 430.036255,406.145508   C430.036285,406.145508 430.030762,406.040558 429.830566,406.110413   C429.410797,406.444122 429.191223,406.708038 428.971649,406.971924  z"
   id="path35"
   style="fill-rule:evenodd" />
<path
   fill="#F9F7F2"
   opacity="1.000000"
   stroke="none"
   d=" M786.076294,966.953491   C804.227722,966.975769 821.494080,962.422119 838.391418,956.395508   C846.940796,953.346313 855.184937,949.441101 864.164124,945.560181   C869.816833,942.150696 874.872498,939.103699 879.928101,936.056702   C883.632202,933.591980 887.468811,931.303406 891.018005,928.632812   C908.982178,915.115784 924.058411,898.782776 937.307922,880.702271   C940.957520,875.721924 940.956604,875.645325 935.454712,872.272705   C925.400269,866.109314 915.198181,860.179871 905.263062,853.831604   C898.938599,849.790527 898.591431,845.096680 903.436829,840.468262   C906.226562,837.803406 909.203613,837.996948 912.129395,839.600159   C920.721558,844.308289 929.127747,849.358215 937.749878,854.008972   C950.413147,860.839355 948.820618,863.295532 955.054810,848.169678   C963.758728,827.051636 969.940247,805.235779 970.983093,781.303589   C970.959351,772.434448 970.954651,764.489014 970.950012,756.543518   C968.547241,741.988525 966.507690,727.359070 963.546997,712.918457   C962.493958,707.782227 963.444580,704.768555 967.620789,702.056885   C974.876221,697.345764 981.981201,692.403198 989.411499,687.400818   C993.173096,699.356018 997.498962,711.298279 1000.027283,723.609680   C1010.424744,774.238098 1004.362854,823.169250 981.767090,869.554199   C956.858826,920.686279 918.187195,958.118774 866.067688,981.378235   C832.934570,996.164612 798.162598,1003.633484 762.031738,1000.862488   C679.512573,994.533691 614.393799,957.236328 573.086487,885.002136   C529.673584,809.085999 529.116943,730.584900 572.241089,654.126587   C608.922485,589.091187 666.381470,551.511841 739.806274,539.384521   C779.508911,532.826965 818.482483,538.215210 856.049683,552.691589   C882.545166,562.901550 906.480896,577.452759 927.827637,596.219055   C929.701965,597.866760 931.693420,599.381287 933.924683,601.173767   C925.838196,607.339294 917.391174,613.198730 909.111877,619.286438   C906.161011,621.456116 904.473999,619.282959 902.585815,617.948120   C894.734314,612.397766 886.963989,606.732605 878.612671,600.754700   C873.442505,597.729797 868.823486,595.059753 864.204407,592.389709   C847.189453,583.342773 828.932617,577.882751 810.145935,574.191040   C802.196838,572.629028 794.048157,572.082703 785.081177,571.085449   C776.143616,571.143677 768.115173,571.191284 760.086731,571.238831   C749.299683,572.831848 738.425110,573.987122 727.746155,576.121094   C711.916077,579.284363 696.653564,584.348755 681.808105,592.480286   C676.121460,595.882629 671.025330,598.925049 665.929260,601.967468   C658.651794,607.320007 650.981140,612.219116 644.177795,618.118408   C629.588379,630.769165 616.655151,644.964783 606.487549,662.268311   C603.128967,667.894531 600.139587,673.026062 597.150146,678.157532   C584.107239,702.390808 577.176025,728.366455 575.070190,756.598022   C575.110352,765.446960 575.120850,773.407227 575.131348,781.367432   C575.334656,799.800720 579.863281,817.409851 585.827271,834.648254   C588.788391,843.206909 592.816101,851.396606 596.767273,860.252991   C600.436523,866.098389 603.699768,871.443909 606.963013,876.789490   C613.823425,885.719421 619.803772,895.543213 627.751404,903.369019   C639.542542,914.979370 652.727234,925.174438 665.899414,936.248901   C671.767334,939.586670 677.054688,942.647400 682.342041,945.708130   C706.537659,957.888855 732.035645,965.393066 760.041504,967.020020   C769.315002,966.946106 777.695618,966.949829 786.076294,966.953491  z"
   id="path36"
   style="fill-rule:evenodd" />
<path
   fill="#DA8344"
   opacity="1.000000"
   stroke="none"
   d=" M1143.691284,431.356506   C1145.141235,431.806458 1146.519165,432.411652 1147.576538,433.370239   C1171.841553,455.368225 1193.713623,479.577026 1213.955566,505.668640   C1208.855225,500.936432 1203.686523,495.886810 1198.576416,490.778503   C1196.628784,488.831665 1194.815674,486.750244 1191.996216,485.411407   C1194.282349,488.893494 1196.686523,492.304443 1198.834717,495.869690   C1209.213257,513.095459 1220.087158,530.054871 1229.711548,547.694580   C1241.180664,568.715576 1251.206421,590.474731 1258.353882,613.447693   C1262.378418,626.382751 1257.620972,641.149719 1247.351562,649.903320   C1234.872437,660.540466 1220.937866,661.339966 1206.067383,657.482849   C1183.369019,651.595276 1160.719482,645.519226 1138.050781,639.517395   C1137.407837,639.347168 1136.782593,639.109497 1136.147217,638.909485   C1125.837402,635.664124 1125.678833,635.996582 1120.189331,645.434387   C1103.385132,674.324890 1086.366455,703.090759 1069.403809,731.888977   C1065.780640,738.040222 1062.119263,744.172424 1058.299561,750.201904   C1057.398438,751.624268 1055.784668,752.595093 1054.146729,753.748596   C1076.214722,715.739441 1098.626465,677.750244 1121.062500,639.775574   C1125.134155,632.883911 1125.080933,633.278931 1132.830566,635.369995   C1159.628540,642.600891 1186.408691,649.937378 1213.381348,656.467102   C1229.802124,660.442444 1245.820801,652.765808 1254.074707,638.040833   C1259.359863,628.611938 1257.971558,618.644592 1254.643188,608.999268   C1245.432739,582.308838 1232.555542,557.303223 1218.727173,532.786499   C1199.247925,498.251373 1175.366577,466.928070 1148.618164,437.734467   C1146.829224,435.781952 1145.182617,433.698761 1143.691284,431.356506  z"
   id="path37"
   style="fill-rule:evenodd" />
<path
   fill="#DA8344"
   opacity="1.000000"
   stroke="none"
   d=" M1300.946289,682.398193   C1304.265381,694.838562 1307.953003,707.607849 1310.725586,720.572693   C1322.698975,776.556335 1324.817261,833.094360 1318.659058,889.896912   C1314.907593,924.501282 1308.229492,958.606995 1297.462891,992.158447   C1297.821655,989.209839 1298.380737,985.965271 1299.054077,982.744568   C1304.220703,958.033752 1310.172852,933.457581 1314.409302,908.588806   C1320.486938,872.912415 1321.439087,836.788513 1319.779785,800.700928   C1318.034912,762.751953 1311.294922,725.488892 1301.967407,688.688416   C1301.479858,686.764099 1301.245728,684.775635 1300.946289,682.398193  z"
   id="path38"
   style="fill-rule:evenodd" />
<path
   fill="#DA8344"
   opacity="1.000000"
   stroke="none"
   d=" M1022.445923,1326.516357   C1035.296997,1320.762817 1048.147217,1315.007202 1061.000732,1309.259399   C1062.056396,1308.787354 1063.136108,1308.369629 1064.577881,1307.921387   C1061.198486,1310.453247 1057.735718,1313.680054 1053.640259,1315.401123   C1039.880981,1321.183960 1025.898193,1326.435059 1011.988098,1331.857178   C1011.575256,1332.018188 1011.021484,1331.817627 1009.905640,1330.723511   C1015.039795,1327.805908 1020.173950,1324.888428 1025.683350,1322.008789   C1024.753296,1323.111816 1023.448181,1324.176880 1021.737427,1325.559814   C1021.191467,1326.176025 1021.051270,1326.474487 1020.911072,1326.772827   C1021.422668,1326.687256 1021.934326,1326.601807 1022.445923,1326.516357  z"
   id="path39"
   style="fill-rule:evenodd" />
<path
   fill="#DA8344"
   opacity="1.000000"
   stroke="none"
   d=" M1181.707520,1197.034424   C1173.505249,1206.388062 1165.064453,1215.851196 1156.350464,1225.055664   C1152.046997,1229.601562 1147.239624,1233.670166 1142.325073,1238.047607   C1143.149658,1236.268921 1144.019531,1234.116577 1145.515869,1232.570679   C1155.978027,1221.761719 1166.553467,1211.062134 1177.141846,1200.376099   C1178.394165,1199.112183 1179.944214,1198.143066 1181.707520,1197.034424  z"
   id="path40"
   style="fill-rule:evenodd" />
<path
   fill="#DA8344"
   opacity="1.000000"
   stroke="none"
   d=" M1118.105225,1258.563477   C1103.876099,1269.811523 1089.305664,1280.909912 1074.385376,1292.037842   C1075.405273,1290.518311 1076.566406,1288.697021 1078.177612,1287.463135   C1090.564087,1277.977051 1103.031860,1268.596680 1115.504272,1259.223145   C1116.115112,1258.764160 1117.004272,1258.675293 1118.105225,1258.563477  z"
   id="path41"
   style="fill-rule:evenodd" />
<path
   fill="#DA8344"
   opacity="1.000000"
   stroke="none"
   d=" M1280.963867,624.385254   C1285.645630,636.048157 1290.486328,648.043518 1294.869019,660.203979   C1297.341919,667.065613 1299.060547,674.199036 1301.063110,681.612122   C1299.353027,677.710144 1297.608154,673.438293 1296.061157,669.095947   C1291.265381,655.634521 1286.533447,642.150330 1281.814819,628.661621   C1281.380249,627.419006 1281.219360,626.080688 1280.963867,624.385254  z"
   id="path42"
   style="fill-rule:evenodd" />
<path
   fill="#DA8344"
   opacity="1.000000"
   stroke="none"
   d=" M1229.677490,1135.031250   C1226.093140,1141.055420 1222.348145,1147.237061 1218.177124,1153.116699   C1213.883423,1159.169434 1209.174438,1164.927490 1204.324951,1170.918213   C1204.992676,1169.017212 1205.743286,1166.844604 1207.012573,1165.035889   C1213.540527,1155.733398 1220.185181,1146.512573 1226.842651,1137.302002   C1227.482666,1136.416626 1228.491943,1135.798462 1229.677490,1135.031250  z"
   id="path43"
   style="fill-rule:evenodd" />
<path
   fill="#DA8344"
   opacity="1.000000"
   stroke="none"
   d=" M1264.511719,1073.999878   C1262.198975,1079.564941 1259.781372,1085.335205 1256.862183,1090.839478   C1252.605835,1098.864990 1247.988647,1106.699097 1243.217773,1114.759521   C1243.100220,1113.769165 1243.010864,1112.485962 1243.522583,1111.521484   C1249.988037,1099.338989 1256.535522,1087.200073 1263.089233,1075.064575   C1263.307861,1074.659668 1263.811768,1074.408813 1264.511719,1073.999878  z"
   id="path44"
   style="fill-rule:evenodd" />
<path
   fill="#DA8344"
   opacity="1.000000"
   stroke="none"
   d=" M1254.992188,569.351562   C1259.767700,578.041504 1264.585693,587.078003 1269.226318,596.204651   C1271.252075,600.188843 1272.914551,604.357666 1274.733398,608.815796   C1271.575684,603.672974 1268.155762,598.291016 1265.344604,592.608032   C1261.634033,585.107178 1258.401001,577.370178 1254.992188,569.351562  z"
   id="path45"
   style="fill-rule:evenodd" />
<path
   fill="#DA8344"
   opacity="1.000000"
   stroke="none"
   d=" M1296.762817,993.154053   C1295.206299,999.082642 1293.633301,1005.342224 1291.486816,1011.398438   C1288.445679,1019.979004 1284.981689,1028.409668 1281.415405,1037.148193   C1282.772461,1032.047241 1284.223999,1026.635742 1286.094482,1021.372986   C1289.426025,1011.999207 1293.011108,1002.715576 1296.762817,993.154053  z"
   id="path46"
   style="fill-rule:evenodd" />
<path
   fill="#DA8344"
   opacity="1.000000"
   stroke="none"
   d=" M1227.938599,525.406494   C1234.290649,534.791626 1240.624390,544.551636 1246.963013,554.670288   C1246.190186,554.471436 1245.139160,554.082214 1244.676392,553.330688   C1239.040771,544.178528 1233.491821,534.973083 1227.938599,525.406494  z"
   id="path47"
   style="fill-rule:evenodd" />
<path
   fill="#DA8344"
   opacity="1.000000"
   stroke="none"
   d=" M1058.682861,1302.013062   C1049.950684,1307.691772 1040.840820,1313.344604 1031.374512,1319.020874   C1033.287842,1317.044678 1035.313965,1314.629883 1037.875122,1313.125977   C1044.560059,1309.200195 1051.479370,1305.673096 1058.682861,1302.013062  z"
   id="path48"
   style="fill-rule:evenodd" />
<path
   fill="#DA8344"
   opacity="1.000000"
   stroke="none"
   d=" M1097.322998,1290.987793   C1106.047363,1285.301025 1115.151245,1279.640381 1124.612305,1273.966797   C1122.020386,1276.427979 1119.329468,1279.334839 1116.065918,1281.281616   C1110.124146,1284.826416 1103.842407,1287.801270 1097.322998,1290.987793  z"
   id="path49"
   style="fill-rule:evenodd" />
<path
   fill="#DA8344"
   opacity="1.000000"
   stroke="none"
   d=" M1272.404053,1057.958984   C1270.285156,1063.034058 1267.851318,1068.231812 1265.138672,1073.621948   C1267.269775,1068.570190 1269.679443,1063.325928 1272.404053,1057.958984  z"
   id="path50"
   style="fill-rule:evenodd" />
<path
   fill="#DA8344"
   opacity="1.000000"
   stroke="none"
   d=" M1065.309814,1307.978394   C1069.706665,1305.280640 1074.483521,1302.622314 1079.624878,1299.962769   C1075.222900,1302.646973 1070.456421,1305.332397 1065.309814,1307.978394  z"
   id="path51"
   style="fill-rule:evenodd" />
<path
   fill="#DA8344"
   opacity="1.000000"
   stroke="none"
   d=" M1246.941772,555.400513   C1249.650269,559.436523 1252.333618,563.847351 1255.026245,568.621033   C1252.329224,564.580994 1249.622925,560.178162 1246.941772,555.400513  z"
   id="path52"
   style="fill-rule:evenodd" />
<path
   fill="#DA8344"
   opacity="1.000000"
   stroke="none"
   d=" M1125.332642,1274.003662   C1128.730469,1271.298462 1132.501343,1268.633667 1136.622559,1265.895264   C1133.217163,1268.562622 1129.461426,1271.303345 1125.332642,1274.003662  z"
   id="path53"
   style="fill-rule:evenodd" />
<path
   fill="#DA8344"
   opacity="1.000000"
   stroke="none"
   d=" M1203.673828,1171.022217   C1201.237915,1174.618896 1198.453247,1178.235352 1195.342773,1181.944214   C1197.786377,1178.371826 1200.555786,1174.706909 1203.673828,1171.022217  z"
   id="path54"
   style="fill-rule:evenodd" />
<path
   fill="#DA8344"
   opacity="1.000000"
   stroke="none"
   d=" M1194.688721,1182.024902   C1192.935059,1184.646362 1190.829834,1187.276123 1188.399780,1189.997070   C1190.162354,1187.403076 1192.249878,1184.718018 1194.688721,1182.024902  z"
   id="path55"
   style="fill-rule:evenodd" />
<path
   fill="#DA8344"
   opacity="1.000000"
   stroke="none"
   d=" M1187.744019,1190.079590   C1186.608765,1191.977661 1185.121216,1193.892090 1183.314331,1195.909058   C1184.460571,1194.039673 1185.926147,1192.067993 1187.744019,1190.079590  z"
   id="path56"
   style="fill-rule:evenodd" />
<path
   fill="#DA8344"
   opacity="1.000000"
   stroke="none"
   d=" M1276.038086,1049.334717   C1275.435547,1051.686646 1274.497437,1054.174683 1273.262329,1056.862793   C1273.877686,1054.531982 1274.790161,1052.001465 1276.038086,1049.334717  z"
   id="path57"
   style="fill-rule:evenodd" />
<path
   fill="#DA8344"
   opacity="1.000000"
   stroke="none"
   d=" M1070.688721,1294.017334   C1069.286255,1295.370483 1067.518066,1296.702881 1065.407837,1298.072388   C1066.818115,1296.738647 1068.570557,1295.367554 1070.688721,1294.017334  z"
   id="path58"
   style="fill-rule:evenodd" />
<path
   fill="#DA8344"
   opacity="1.000000"
   stroke="none"
   d=" M1233.683105,1129.046387   C1232.899658,1130.929077 1231.762695,1132.844604 1230.318604,1134.893066   C1231.117554,1133.043701 1232.223633,1131.061523 1233.683105,1129.046387  z"
   id="path59"
   style="fill-rule:evenodd" />
<path
   fill="#DA8344"
   opacity="1.000000"
   stroke="none"
   d=" M1237.554077,1122.979492   C1236.812256,1124.877197 1235.724976,1126.827881 1234.327393,1128.906616   C1235.080933,1127.033936 1236.144775,1125.033203 1237.554077,1122.979492  z"
   id="path60"
   style="fill-rule:evenodd" />
<path
   fill="#DA8344"
   opacity="1.000000"
   stroke="none"
   d=" M1139.679443,1239.935791   C1138.657227,1241.336182 1137.262939,1242.722168 1135.546997,1244.178223   C1136.585938,1242.805786 1137.946533,1241.363525 1139.679443,1239.935791  z"
   id="path61"
   style="fill-rule:evenodd" />
<path
   fill="#DA8344"
   opacity="1.000000"
   stroke="none"
   d=" M1216.995361,510.326233   C1218.271240,511.454437 1219.525757,512.941772 1220.831543,514.757385   C1219.579834,513.618835 1218.276978,512.152100 1216.995361,510.326233  z"
   id="path62"
   style="fill-rule:evenodd" />
<path
   fill="#DA8344"
   opacity="1.000000"
   stroke="none"
   d=" M1141.973633,1262.594238   C1143.186890,1261.348511 1144.756104,1260.203247 1146.658325,1259.011230   C1145.437378,1260.207886 1143.883423,1261.451294 1141.973633,1262.594238  z"
   id="path63"
   style="fill-rule:evenodd" />
<path
   fill="#DA8344"
   opacity="1.000000"
   stroke="none"
   d=" M1086.273315,1296.946167   C1087.631836,1295.846680 1089.359131,1294.779663 1091.434570,1293.679932   C1090.069092,1294.757690 1088.355713,1295.868164 1086.273315,1296.946167  z"
   id="path64"
   style="fill-rule:evenodd" />
<path
   fill="#DA8344"
   opacity="1.000000"
   stroke="none"
   d=" M1278.692139,1043.083984   C1278.286743,1044.875732 1277.573730,1046.854004 1276.592407,1049.045410   C1277.010864,1047.262573 1277.697754,1045.266602 1278.692139,1043.083984  z"
   id="path65"
   style="fill-rule:evenodd" />
<path
   fill="#DA8344"
   opacity="1.000000"
   stroke="none"
   d=" M1030.674072,1318.987183   C1029.598877,1320.017212 1028.156128,1321.011841 1026.375000,1322.036133   C1027.459961,1321.027832 1028.883179,1319.989746 1030.674072,1318.987183  z"
   id="path66"
   style="fill-rule:evenodd" />
<path
   fill="#DA8344"
   opacity="1.000000"
   stroke="none"
   d=" M1240.653076,1118.038208   C1240.186523,1119.553711 1239.363159,1121.115112 1238.226807,1122.792725   C1238.708008,1121.300659 1239.502197,1119.692383 1240.653076,1118.038208  z"
   id="path67"
   style="fill-rule:evenodd" />
<path
   fill="#DA8344"
   opacity="1.000000"
   stroke="none"
   d=" M1122.496826,1254.897949   C1121.654907,1256.043945 1120.456665,1257.192871 1118.971924,1258.459961   C1119.837158,1257.352417 1120.988892,1256.126587 1122.496826,1254.897949  z"
   id="path68"
   style="fill-rule:evenodd" />
<path
   fill="#DA8344"
   opacity="1.000000"
   stroke="none"
   d=" M1213.971191,506.356628   C1214.983643,507.110535 1215.976318,508.223572 1217.000488,509.663025   C1216.005127,508.898193 1214.978271,507.806946 1213.971191,506.356628  z"
   id="path69"
   style="fill-rule:evenodd" />
<path
   fill="#DA8344"
   opacity="1.000000"
   stroke="none"
   d=" M1278.946777,619.371704   C1279.682007,620.440186 1280.381836,621.873718 1281.043335,623.659790   C1280.307007,622.587158 1279.609131,621.161926 1278.946777,619.371704  z"
   id="path70"
   style="fill-rule:evenodd" />
<path
   fill="#DA8344"
   opacity="1.000000"
   stroke="none"
   d=" M1134.881104,1244.200195   C1134.375488,1245.137329 1133.518921,1246.045288 1132.348145,1247.010254   C1132.866089,1246.101807 1133.698242,1245.136475 1134.881104,1244.200195  z"
   id="path71"
   style="fill-rule:evenodd" />
<path
   fill="#DA8344"
   opacity="1.000000"
   stroke="none"
   d=" M1275.941406,612.369690   C1276.714233,613.409058 1277.446411,614.819031 1278.169556,616.583130   C1277.407227,615.538269 1276.653931,614.139221 1275.941406,612.369690  z"
   id="path72"
   style="fill-rule:evenodd" />
<path
   fill="#DA8344"
   opacity="1.000000"
   stroke="none"
   d=" M1138.400513,1265.089233   C1139.019653,1264.282227 1139.999268,1263.483154 1141.283813,1262.596680   C1140.646240,1263.371948 1139.703613,1264.234497 1138.400513,1265.089233  z"
   id="path73"
   style="fill-rule:evenodd" />
<path
   fill="#DA8344"
   opacity="1.000000"
   stroke="none"
   d=" M1280.640747,1038.104614   C1280.537354,1039.258789 1280.124146,1040.620972 1279.440552,1042.232300   C1279.557129,1041.091797 1279.944092,1039.702271 1280.640747,1038.104614  z"
   id="path74"
   style="fill-rule:evenodd" />
<path
   fill="#DA8344"
   opacity="1.000000"
   stroke="none"
   d=" M1220.907227,515.453369   C1221.597778,515.867493 1222.287598,516.619568 1222.995972,517.689209   C1222.311768,517.268250 1221.609131,516.529785 1220.907227,515.453369  z"
   id="path75"
   style="fill-rule:evenodd" />
<path
   fill="#DA8344"
   opacity="1.000000"
   stroke="none"
   d=" M1222.979980,518.329102   C1223.669189,518.762207 1224.340820,519.543152 1225.040283,520.643311   C1224.366211,520.200684 1223.664185,519.438782 1222.979980,518.329102  z"
   id="path76"
   style="fill-rule:evenodd" />
<path
   fill="#DA8344"
   opacity="1.000000"
   stroke="none"
   d=" M1225.915039,522.420044   C1226.587646,522.856750 1227.252197,523.632080 1227.939209,524.723083   C1227.276733,524.278687 1226.591797,523.518677 1225.915039,522.420044  z"
   id="path77"
   style="fill-rule:evenodd" />
<path
   fill="#DA8344"
   opacity="1.000000"
   stroke="none"
   d=" M1061.744141,1300.049316   C1061.289062,1300.724365 1060.481201,1301.369873 1059.351929,1302.041260   C1059.817383,1301.384644 1060.604492,1300.702148 1061.744141,1300.049316  z"
   id="path78"
   style="fill-rule:evenodd" />
<path
   fill="#DA8344"
   opacity="1.000000"
   stroke="none"
   d=" M1064.740479,1298.053955   C1064.297729,1298.728882 1063.500000,1299.380493 1062.384277,1300.071655   C1062.839233,1299.417603 1063.612549,1298.724121 1064.740479,1298.053955  z"
   id="path79"
   style="fill-rule:evenodd" />
<path
   fill="#DA8344"
   opacity="1.000000"
   stroke="none"
   d=" M1242.564697,1115.004395   C1242.454712,1115.866211 1242.014893,1116.808838 1241.285400,1117.882568   C1241.408691,1117.037598 1241.821777,1116.061523 1242.564697,1115.004395  z"
   id="path80"
   style="fill-rule:evenodd" />
<path
   fill="#DA8344"
   opacity="1.000000"
   stroke="none"
   d=" M1126.923706,1251.217773   C1126.721436,1251.822632 1126.185181,1252.410522 1125.340576,1253.030273   C1125.551392,1252.441650 1126.070557,1251.821167 1126.923706,1251.217773  z"
   id="path81"
   style="fill-rule:evenodd" />
<path
   fill="#DA8344"
   opacity="1.000000"
   stroke="none"
   d=" M1131.746582,1247.059570   C1131.562012,1247.641602 1131.057983,1248.247070 1130.252686,1248.894775   C1130.443237,1248.318970 1130.935181,1247.701050 1131.746582,1247.059570  z"
   id="path82"
   style="fill-rule:evenodd" />
<path
   fill="#DA8344"
   opacity="1.000000"
   stroke="none"
   d=" M1147.268066,1258.972168   C1147.508301,1258.462280 1148.052490,1257.937622 1148.888672,1257.360596   C1148.644531,1257.858032 1148.108398,1258.407837 1147.268066,1258.972168  z"
   id="path83"
   style="fill-rule:evenodd" />
<path
   fill="#DA8344"
   opacity="1.000000"
   stroke="none"
   d=" M1274.977295,610.184326   C1275.337402,610.370178 1275.683350,610.875000 1276.010742,611.699097   C1275.648926,611.513428 1275.306030,611.008362 1274.977295,610.184326  z"
   id="path84"
   style="fill-rule:evenodd" />
<path
   fill="#DA8344"
   opacity="1.000000"
   stroke="none"
   d=" M1092.077148,1293.740723   C1092.224487,1293.340698 1092.698242,1292.991821 1093.473633,1292.622314   C1093.317993,1292.998535 1092.860840,1293.395264 1092.077148,1293.740723  z"
   id="path85"
   style="fill-rule:evenodd" />
<path
   fill="#DA8344"
   opacity="1.000000"
   stroke="none"
   d=" M1084.231567,1297.947510   C1084.396606,1297.582886 1084.871704,1297.224731 1085.658447,1296.874756   C1085.493896,1297.239868 1085.017822,1297.596924 1084.231567,1297.947510  z"
   id="path86"
   style="fill-rule:evenodd" />
<path
   fill="#DA8344"
   opacity="1.000000"
   stroke="none"
   d=" M1082.207397,1299.013184   C1082.376587,1298.642578 1082.863647,1298.274658 1083.666626,1297.907593   C1083.496704,1298.277588 1083.011108,1298.646729 1082.207397,1299.013184  z"
   id="path87"
   style="fill-rule:evenodd" />
<path
   fill="#FAF8F3"
   opacity="1.000000"
   stroke="none"
   d=" M1325.079346,491.915924   C1325.413818,492.308441 1325.597046,492.829224 1325.780273,493.349976   C1325.437012,493.182678 1325.093628,493.015381 1324.685669,492.571838   C1324.620972,492.295563 1324.927979,492.044189 1325.079346,491.915924  z"
   id="path88"
   style="fill-rule:evenodd" />
<path
   fill="#DA8344"
   opacity="1.000000"
   stroke="none"
   d=" M1128.512817,1249.923218   C1128.456543,1250.314453 1128.105347,1250.746948 1127.465088,1251.234009   C1127.523315,1250.847290 1127.870728,1250.405884 1128.512817,1249.923218  z"
   id="path89"
   style="fill-rule:evenodd" />
<path
   fill="#DA8344"
   opacity="1.000000"
   stroke="none"
   d=" M1095.281982,1292.000000   C1095.439941,1291.643311 1095.905029,1291.289673 1096.679321,1290.934326   C1096.522095,1291.289673 1096.055542,1291.646362 1095.281982,1292.000000  z"
   id="path90"
   style="fill-rule:evenodd" />
<path
   fill="#DA8344"
   opacity="1.000000"
   stroke="none"
   d=" M1278.092285,617.189270   C1278.420654,617.385071 1278.726196,617.888794 1279.008667,618.703003   C1278.680176,618.507996 1278.374878,618.002625 1278.092285,617.189270  z"
   id="path91"
   style="fill-rule:evenodd" />
<path
   fill="#DA8344"
   opacity="1.000000"
   stroke="none"
   d=" M1182.774414,1196.094482   C1182.863525,1196.313477 1182.716797,1196.636230 1182.295410,1197.010498   C1182.193481,1196.773926 1182.366089,1196.486084 1182.774414,1196.094482  z"
   id="path92"
   style="fill-rule:evenodd" />
<path
   fill="#DA8344"
   opacity="1.000000"
   stroke="none"
   d=" M1129.700195,1249.005615   C1129.908447,1249.317993 1129.734619,1249.579224 1129.163574,1249.758789   C1128.986816,1249.448853 1129.170898,1249.208008 1129.700195,1249.005615  z"
   id="path93"
   style="fill-rule:evenodd" />
<path
   fill="#DA8344"
   opacity="1.000000"
   stroke="none"
   d=" M1124.815430,1253.094238   C1124.882080,1253.318604 1124.700195,1253.608643 1124.251099,1253.935303   C1124.178223,1253.701294 1124.372437,1253.430664 1124.815430,1253.094238  z"
   id="path94"
   style="fill-rule:evenodd" />
<path
   fill="#DA8344"
   opacity="1.000000"
   stroke="none"
   d=" M1123.737305,1254.039062   C1123.802856,1254.266724 1123.633179,1254.550781 1123.198608,1254.841064   C1123.007080,1254.509033 1123.196411,1254.258423 1123.737305,1254.039062  z"
   id="path95"
   style="fill-rule:evenodd" />
<path
   fill="#DA8344"
   opacity="1.000000"
   stroke="none"
   d=" M1225.099609,521.174683   C1225.318115,521.126953 1225.600342,521.321472 1225.895508,521.784180   C1225.660156,521.840515 1225.411743,521.628784 1225.099609,521.174683  z"
   id="path96"
   style="fill-rule:evenodd" />
<path
   fill="#DA8344"
   opacity="1.000000"
   stroke="none"
   d=" M1072.110474,1293.176758   C1072.138550,1293.410889 1071.871948,1293.692749 1071.310791,1294.019043   C1071.282715,1293.783813 1071.549316,1293.504150 1072.110474,1293.176758  z"
   id="path97"
   style="fill-rule:evenodd" />
<path
   fill="#DA8344"
   opacity="1.000000"
   stroke="none"
   d=" M1080.189087,1299.965820   C1080.025635,1299.612305 1080.244019,1299.387695 1080.858887,1299.320801   C1080.965942,1299.636353 1080.737671,1299.841797 1080.189087,1299.965820  z"
   id="path98"
   style="fill-rule:evenodd" />
<path
   fill="#DA8344"
   opacity="1.000000"
   stroke="none"
   d=" M1073.823242,1292.087158   C1073.869019,1292.316772 1073.667725,1292.599976 1073.189819,1292.884033   C1073.134277,1292.636963 1073.355347,1292.388794 1073.823242,1292.087158  z"
   id="path99"
   style="fill-rule:evenodd" />
<path
   fill="#DA8344"
   opacity="1.000000"
   stroke="none"
   d=" M1093.960449,1292.694824   C1093.944946,1292.457275 1094.201416,1292.216064 1094.732544,1291.976318   C1094.748901,1292.215576 1094.490601,1292.453369 1093.960449,1292.694824  z"
   id="path100"
   style="fill-rule:evenodd" />
<path
   fill="#F9F8F4"
   opacity="1.000000"
   stroke="none"
   d=" M1011.700928,552.303345   C1000.565063,543.932678 989.713135,535.780334 978.861206,527.628052   C978.934082,527.173462 979.006958,526.718872 979.079895,526.264282   C1039.607178,522.559021 1100.134399,518.853699 1162.057983,515.062988   C1130.301270,568.957886 1099.307129,621.558594 1068.312988,674.159241   C1067.882812,674.083862 1067.452515,674.008423 1067.022217,673.933044   C1063.339355,652.772156 1059.656494,631.611206 1055.833252,609.643250   C1047.810791,614.902039 1040.261230,619.713501 1032.850586,624.730042   C960.108521,673.971069 887.400330,723.261963 814.641174,772.477661   C809.558044,775.916016 805.934265,780.144043 802.954712,785.649902   C796.765320,797.087708 787.247742,804.963562 773.587402,804.722046   C759.528381,804.473633 749.762268,796.881714 743.289795,784.467529   C741.386230,780.816467 738.570679,777.092712 735.209656,774.838989   C714.065552,760.660400 692.587585,746.980103 671.406982,732.854797   C668.933594,731.205261 666.736511,728.089539 665.906067,725.220886   C663.144775,715.683105 661.065430,705.947937 658.644531,695.957764   C660.129211,695.532715 661.164185,695.068176 662.235291,694.959351   C666.540222,694.521851 670.965820,694.680054 675.148499,693.737793   C689.108826,690.592834 700.545532,695.327698 711.838379,703.246765   C728.310486,714.797546 745.578918,725.206360 762.332703,736.364990   C770.006836,741.476257 776.973877,741.015930 784.454285,735.975037   C820.188965,711.894165 856.103699,688.080444 891.823120,663.977051   C935.545349,634.473389 979.139648,604.780090 1022.779480,575.154236   C1025.795654,573.106567 1028.729736,570.938110 1032.339844,568.372620   C1025.283691,562.877747 1018.634277,557.699768 1011.700928,552.303345  z"
   id="path101"
   style="fill-rule:evenodd" />
<path
   fill="#F0771B"
   opacity="1.000000"
   stroke="none"
   d=" M786.049011,966.488403   C777.695618,966.949829 769.315002,966.946106 760.489014,966.899414   C760.072144,953.555176 760.043945,940.253479 760.163635,926.953064   C760.199402,922.976685 760.430115,918.974854 760.956543,915.036133   C761.877869,908.142822 767.013428,904.211853 773.857422,904.827820   C780.471558,905.423096 785.603149,910.786133 785.650635,917.143250   C785.772400,933.436584 785.897827,949.729919 786.049011,966.488403  z"
   id="path102"
   style="fill-rule:evenodd" />
<path
   fill="#F17619"
   opacity="1.000000"
   stroke="none"
   d=" M575.592529,781.360229   C575.120850,773.407227 575.110352,765.446960 575.155823,757.084595   C591.671997,756.731140 608.134033,756.648376 624.591309,756.891785   C631.396057,756.992493 635.149902,759.919556 636.722168,765.248718   C638.254761,770.443176 635.996216,776.874390 631.102661,780.135864   C629.728821,781.051453 627.696838,781.298401 625.964111,781.306946   C609.327698,781.389038 592.690613,781.354309 575.592529,781.360229  z"
   id="path103"
   style="fill-rule:evenodd" />
<path
   fill="#F1761A"
   opacity="1.000000"
   stroke="none"
   d=" M970.492554,756.574341   C970.954651,764.489014 970.959351,772.434448 970.914978,780.876587   C954.207031,781.273682 937.545898,781.302979 920.890198,781.016968   C913.251953,780.885803 908.895935,776.656433 908.666077,770.007324   C908.434692,763.313171 913.443054,757.342651 920.575134,757.142212   C937.053833,756.679077 953.547546,756.750488 970.492554,756.574341  z"
   id="path104"
   style="fill-rule:evenodd" />
<path
   fill="#F17619"
   opacity="1.000000"
   stroke="none"
   d=" M760.083252,571.691650   C768.115173,571.191284 776.143616,571.143677 784.641785,571.179321   C785.082214,588.411072 785.182251,605.561340 784.948120,622.707092   C784.873779,628.150330 779.191895,632.698181 773.276489,632.849304   C767.360779,633.000427 761.335815,628.266479 761.155762,622.597961   C760.621643,605.785767 760.414612,588.963074 760.083252,571.691650  z"
   id="path105"
   style="fill-rule:evenodd" />
<path
   fill="#EC7821"
   opacity="1.000000"
   stroke="none"
   d=" M666.196899,602.184509   C671.025330,598.925049 676.121460,595.882629 681.558472,592.694336   C688.790588,604.459595 695.739502,616.337952 702.548401,628.295959   C705.873108,634.134888 705.052368,638.206665 700.322876,641.105652   C695.271301,644.201965 690.941711,643.284790 687.318970,637.437317   C680.162476,625.885803 673.393677,614.093994 666.196899,602.184509  z"
   id="path106"
   style="fill-rule:evenodd" />
<path
   fill="#ED7821"
   opacity="1.000000"
   stroke="none"
   d=" M682.509460,945.387024   C677.054688,942.647400 671.767334,939.586670 666.250977,936.286011   C672.334351,925.298096 678.617126,914.532532 684.986084,903.818115   C686.166016,901.833008 687.513489,899.883484 689.098022,898.216309   C692.409790,894.731445 696.287231,894.275391 700.368347,896.895447   C704.077271,899.276611 705.321960,903.428833 703.009766,907.868042   C698.402283,916.713501 693.410461,925.358459 688.599609,934.098511   C686.596130,937.738159 684.649414,941.409119 682.509460,945.387024  z"
   id="path107"
   style="fill-rule:evenodd" />
<path
   fill="#ED7820"
   opacity="1.000000"
   stroke="none"
   d=" M607.191406,876.558960   C603.699768,871.443909 600.436523,866.098389 597.079285,860.419067   C608.802429,853.265198 620.547180,846.314880 632.469177,839.683167   C637.893250,836.665894 641.571716,837.430237 645.035828,841.337402   C648.512268,845.258728 648.354919,850.035217 643.984558,852.944031   C635.680237,858.471313 627.069397,863.536194 618.632019,868.866211   C614.837463,871.263184 611.153748,873.835571 607.191406,876.558960  z"
   id="path108"
   style="fill-rule:evenodd" />
<path
   fill="#EC7821"
   opacity="1.000000"
   stroke="none"
   d=" M879.684509,935.816284   C874.872498,939.103699 869.816833,942.150696 864.424561,945.363403   C857.470276,933.602173 850.717896,921.747192 844.288086,909.719788   C840.744019,903.090393 841.965637,898.707947 847.332092,896.274719   C851.982605,894.166016 855.541321,895.193420 858.655029,900.331482   C865.723267,911.994995 872.528625,923.817749 879.684509,935.816284  z"
   id="path109"
   style="fill-rule:evenodd" />
<path
   fill="#ED7821"
   opacity="1.000000"
   stroke="none"
   d=" M864.194336,592.791565   C868.823486,595.059753 873.442505,597.729797 878.295898,600.681335   C871.371582,613.871094 864.323730,626.842896 856.985107,639.648132   C854.849060,643.375427 851.241943,643.912659 847.438721,641.856628   C842.796997,639.347412 840.566650,634.903442 842.659851,630.757568   C846.624451,622.905090 851.038879,615.274902 855.407593,607.633118   C858.202148,602.744995 861.250000,598.001709 864.194336,592.791565  z"
   id="path110"
   style="fill-rule:evenodd" />
<path
   fill="#ED7821"
   opacity="1.000000"
   stroke="none"
   d=" M597.489868,678.198975   C600.139587,673.026062 603.128967,667.894531 606.435913,662.603943   C617.973022,669.256409 629.295593,675.907898 640.331665,683.004761   C642.753357,684.562012 645.539429,687.632568 645.669128,690.135254   C645.823059,693.105957 644.012329,697.141113 641.682861,698.966919   C639.886902,700.374512 635.427002,700.087402 633.101562,698.816162   C623.778809,693.719666 614.845764,687.913513 605.724304,682.443787   C603.170776,680.912537 600.465332,679.634583 597.489868,678.198975  z"
   id="path111"
   style="fill-rule:evenodd" />
<path
   fill="#DA8344"
   opacity="1.000000"
   stroke="none"
   d=" M1137.765625,426.338745   C1138.638306,426.524811 1139.673340,427.045685 1140.803711,427.927063   C1139.908691,427.749603 1138.918335,427.211609 1137.765625,426.338745  z"
   id="path112"
   style="fill-rule:evenodd" />
<path
   fill="#F57413"
   opacity="1.000000"
   stroke="none"
   d=" M432.469604,404.278992   C432.617920,403.616516 433.127350,402.936127 433.955536,402.160675   C433.793121,402.797455 433.311920,403.529297 432.469604,404.278992  z"
   id="path113"
   style="fill-rule:evenodd" />
<path
   fill="#DA8344"
   opacity="1.000000"
   stroke="none"
   d=" M1140.705200,428.523102   C1141.093018,428.303131 1141.448853,428.447571 1141.859375,428.889648   C1141.500366,429.087311 1141.086792,428.987396 1140.705200,428.523102  z"
   id="path114"
   style="fill-rule:evenodd" />
<path
   fill="#DA8344"
   opacity="1.000000"
   stroke="none"
   d=" M1142.792480,430.419617   C1143.250122,430.198120 1143.589600,430.345947 1143.943848,430.786896   C1143.530640,430.983002 1143.102539,430.885956 1142.792480,430.419617  z"
   id="path115"
   style="fill-rule:evenodd" />
<path
   fill="#DA8344"
   opacity="1.000000"
   stroke="none"
   d=" M1141.755127,429.491486   C1142.167603,429.245911 1142.520874,429.374786 1142.914062,429.799866   C1142.534546,430.019318 1142.115234,429.942627 1141.755127,429.491486  z"
   id="path116"
   style="fill-rule:evenodd" />
<path
   fill="#F57413"
   opacity="1.000000"
   stroke="none"
   d=" M431.341309,405.142883   C431.243286,404.839050 431.461853,404.528229 431.972778,404.168854   C432.062714,404.458832 431.860291,404.797394 431.341309,405.142883  z"
   id="path117"
   style="fill-rule:evenodd" />
<path
   fill="#F57413"
   opacity="1.000000"
   stroke="none"
   d=" M429.269196,406.982849   C429.191223,406.708038 429.410797,406.444122 429.883118,406.109497   C429.946136,406.357086 429.756439,406.675446 429.269196,406.982849  z"
   id="path118"
   style="fill-rule:evenodd" />
<path
   fill="#F57413"
   opacity="1.000000"
   stroke="none"
   d=" M430.340271,406.110199   C430.223694,405.831482 430.411133,405.517456 430.868286,405.117798   C430.973480,405.379730 430.808899,405.727295 430.340271,406.110199  z"
   id="path119"
   style="fill-rule:evenodd" />
<path
   fill="#F57413"
   opacity="1.000000"
   stroke="none"
   d=" M401.385010,1104.475464   C400.641541,1104.373535 399.936707,1103.886230 399.142670,1103.079468   C399.843536,1103.203369 400.633606,1103.646729 401.385010,1104.475464  z"
   id="path120"
   style="fill-rule:evenodd" />
<path
   fill="#F57413"
   opacity="1.000000"
   stroke="none"
   d=" M397.346008,1099.832031   C396.567657,1099.718872 395.630005,1099.283813 394.820770,1098.410156   C395.695007,1098.484375 396.440826,1098.997314 397.346008,1099.832031  z"
   id="path121"
   style="fill-rule:evenodd" />
<path
   fill="#F57413"
   opacity="1.000000"
   stroke="none"
   d=" M404.987579,1108.137817   C404.418457,1108.065918 403.843170,1107.551636 403.063660,1106.693604   C403.566772,1106.798462 404.274109,1107.246948 404.987579,1108.137817  z"
   id="path122"
   style="fill-rule:evenodd" />
<path
   fill="#F57413"
   opacity="1.000000"
   stroke="none"
   d=" M399.274963,1102.521362   C398.840118,1102.675293 398.449829,1102.422363 398.018433,1101.803955   C398.424744,1101.663940 398.872162,1101.889160 399.274963,1102.521362  z"
   id="path123"
   style="fill-rule:evenodd" />
<path
   fill="#F57413"
   opacity="1.000000"
   stroke="none"
   d=" M402.574890,1105.658691   C402.211639,1105.835083 401.787048,1105.601807 401.230103,1105.029541   C401.569672,1104.876587 402.041626,1105.062866 402.574890,1105.658691  z"
   id="path124"
   style="fill-rule:evenodd" />
<path
   fill="#F57413"
   opacity="1.000000"
   stroke="none"
   d=" M1139.561523,1109.698975   C1139.448364,1110.433716 1138.957520,1111.134521 1138.144531,1111.894531   C1138.276245,1111.190796 1138.730103,1110.428101 1139.561523,1109.698975  z"
   id="path125"
   style="fill-rule:evenodd" />
<path
   fill="#F57413"
   opacity="1.000000"
   stroke="none"
   d=" M1142.773560,1106.136475   C1142.594482,1106.717651 1142.130371,1107.413208 1141.334717,1108.092285   C1141.498291,1107.467407 1141.993408,1106.859009 1142.773560,1106.136475  z"
   id="path126"
   style="fill-rule:evenodd" />
<path
   fill="#F57413"
   opacity="1.000000"
   stroke="none"
   d=" M1137.590698,1111.736694   C1137.401245,1112.415039 1136.824585,1112.995239 1135.859375,1113.392334   C1136.048340,1112.685547 1136.625977,1112.161987 1137.590698,1111.736694  z"
   id="path127"
   style="fill-rule:evenodd" />
<path
   fill="#F57413"
   opacity="1.000000"
   stroke="none"
   d=" M1140.749268,1108.079346   C1140.840454,1108.579590 1140.602905,1109.153198 1140.050293,1109.837402   C1139.963745,1109.349731 1140.192139,1108.751221 1140.749268,1108.079346  z"
   id="path128"
   style="fill-rule:evenodd" />
<path
   fill="#FAF8F3"
   opacity="1.000000"
   stroke="none"
   d=" M1022.292664,1326.335449   C1021.934326,1326.601807 1021.422668,1326.687256 1020.911072,1326.772827   C1021.051270,1326.474487 1021.191467,1326.176025 1021.576782,1325.840088   C1021.821777,1325.802490 1022.139404,1326.154541 1022.292664,1326.335449  z"
   id="path129"
   style="fill-rule:evenodd" />
</g>
</svg>
